<svg id="Camada_1" xmlns="http://www.w3.org/2000/svg" width="150" height="135" viewBox="0 0 150 135"><style>.st0{fill:#fff}</style><title>identidade-visual</title><path class="st0" d="M117.8 81.2c-.8-.5-1.7-.8-2.5-1V54.8c.9-.2 1.7-.5 2.5-1 4.6-2.6 6.1-8.5 3.5-13-2.6-4.6-8.5-6.1-13-3.5-.8.5-1.5 1.1-2.2 1.7l-22-12.7c.3-.9.4-1.8.4-2.7 0-5.3-4.3-9.5-9.5-9.5s-9.5 4.3-9.5 9.5c0 .9.1 1.9.4 2.7L43.9 39c-.6-.7-1.3-1.2-2.2-1.7-4.6-2.6-10.4-1.1-13 3.5s-1.1 10.4 3.5 13c.8.5 1.7.8 2.5 1v25.4c-.9.2-1.7.5-2.5 1-4.6 2.6-6.1 8.5-3.5 13s8.4 6.1 13 3.5c.8-.5 1.5-1 2.1-1.7l22 12.7c-.3.9-.4 1.8-.4 2.7 0 5.3 4.3 9.5 9.5 9.5s9.5-4.3 9.5-9.5c0-1.1-.2-2.1-.5-3l21.9-12.6c.7.7 1.4 1.4 2.4 1.9 4.6 2.6 10.4 1.1 13-3.5 2.7-4.5 1.2-10.3-3.4-13zm-78.2-.9c-.1 0-.2-.1-.4-.1V54.8c2.4-.6 4.6-2.2 6-4.5 1.3-2.3 1.6-5 .9-7.4l22-12.7.3.3-28.8 49.8zM82.1 105c-1.7-1.9-4.3-3.1-7.1-3.1-2.7 0-5.1 1.1-6.9 2.9l-22-12.7c0-.1.1-.2.1-.4h57.6c.1.2.1.4.2.6L82.1 105zm22.7-20.3c-.5.8-.8 1.7-1 2.5H46.2c-.2-.9-.5-1.7-1-2.5s-1-1.5-1.7-2.1l28.8-49.9c.8.2 1.7.4 2.7.4.9 0 1.8-.1 2.7-.4l28.8 49.9c-.7.6-1.3 1.3-1.7 2.1zm6-4.5c-.1 0-.2.1-.4.1L81.6 30.4l.3-.3 22 12.7c-.7 2.4-.4 5 .9 7.4 1.3 2.3 3.5 3.9 6 4.5v25.5z"/></svg>