<svg width="160" height="177.99999999999997" xmlns="http://www.w3.org/2000/svg" xmlns:xlink="http://www.w3.org/1999/xlink">
 <!-- Created with Method Draw - http://github.com/duopixel/Method-Draw/ -->

 <g>
  <title>background</title>
  <rect fill="none" id="canvas_background" height="180" width="162" y="-1" x="-1"/>
  <g display="none" overflow="visible" y="0" x="0" height="100%" width="100%" id="canvasGrid">
   <rect fill="url(#gridpattern)" stroke-width="0" y="3" x="3" height="400" width="580"/>
  </g>
 </g>
 <g>
  <title>Layer 1</title>
  <!-- Created with Method Draw - http://github.com/duopixel/Method-Draw/ -->
  <style id="svg_119" stroke="null" transform="translate(1.4210854715202004e-14,2.2658963203430176) translate(2.086238384246826,-1.4210854715202004e-14) translate(1.4210854715202004e-14,-1.4210854715202004e-14) translate(0.0000023412435439240653,1.4210854715202004e-14) translate(1.4210854715202004e-14,1.08229660987854) translate(-0.000007023730631772196,1.4210854715202004e-14) translate(-1.0228865146636963,-0.4291203022003174) translate(15.752452850341797,13.08816909790039) translate(1.4210854715202004e-14,1.4210854715202004e-14) translate(0,0.0011500263353809714) translate(0.000007182163244578987,0) translate(0,8.752302169799805) translate(0.6279844045639038,0) translate(56.481815338134766,63.44434356689453) translate(-33.88909149169922,-36.61888122558594) translate(0,-0.42580097913742065) translate(-341.71875,-244.265625) translate(260.71875,177.1875) translate(1.265625,1.265625) translate(1.265625,1.265625) translate(1.265625,1.265625) translate(-211.359375,-120.234375) translate(292.03125,0) translate(0,185.625) matrix(1.7575067790294625,0,0,1.6931481584472972,-95.318301199615,-91.47391890767528) ">.st0{enable-background:new}.st1{fill:#fff}.st2,.st3{opacity:.6;fill:#fff}.st3{opacity:.8}.st4{filter:url(#Adobe_OpacityMaskFilter)}.st5{clip-path:url(#SVGID_3_)}.st6{clip-path:url(#SVGID_5_)}.st7{clip-path:url(#SVGID_7_)}.st8{clip-path:url(#SVGID_9_);fill:url(#SVGID_10_)}.st9{mask:url(#SVGID_1_)}.st10{clip-path:url(#SVGID_12_);fill:#008abb}.st11{fill:none}.st12{fill:#005aa4}</style>
  <mask stroke="null" transform="translate(1.4210854715202004e-14,2.2658963203430176) translate(2.086238384246826,-1.4210854715202004e-14) translate(1.4210854715202004e-14,-1.4210854715202004e-14) translate(0.0000023412435439240653,1.4210854715202004e-14) translate(1.4210854715202004e-14,1.08229660987854) translate(-0.000007023730631772196,1.4210854715202004e-14) translate(-1.0228865146636963,-0.4291203022003174) translate(15.752452850341797,13.08816909790039) translate(1.4210854715202004e-14,1.4210854715202004e-14) translate(0,0.0011500263353809714) translate(0.000007182163244578987,0) translate(0,8.752302169799805) translate(0.6279844045639038,0) translate(56.481815338134766,63.44434356689453) translate(-33.88909149169922,-36.61888122558594) translate(0,-0.42580097913742065) translate(-341.71875,-244.265625) translate(260.71875,177.1875) translate(1.265625,1.265625) translate(1.265625,1.265625) translate(1.265625,1.265625) translate(-211.359375,-120.234375) translate(292.03125,0) translate(0,185.625) matrix(1.7575067790294625,0,0,1.6931481584472972,-95.318301199615,-91.47391890767528) " maskUnits="userSpaceOnUse" x="47.6" y="55.5" width="3" height="0.2" id="svg_144">
   <g stroke="null" class="st4" id="svg_143">
    <defs id="svg_121" stroke="null">
     <path stroke="null" id="svg_120" d="m29.1,54.7l40.1,0l0,14.1l-40.1,0l0,-14.1z"/>
    </defs>
    <clipPath stroke="null" id="svg_123">
     <use stroke="null" xlink:href="#svg_110" id="svg_122"/>
    </clipPath>
    <g stroke="null" class="st0" id="svg_142">
     <defs id="svg_125" stroke="null">
      <path stroke="null" id="svg_124" d="m29.1,54.7l40.1,0l0,14.1l-40.1,0l0,-14.1z"/>
     </defs>
     <clipPath stroke="null" id="svg_127" class="st5">
      <use stroke="null" xlink:href="#svg_107" id="svg_126"/>
     </clipPath>
     <defs id="svg_129" stroke="null">
      <path stroke="null" id="svg_128" d="m29.1,54.7l40.1,0l0,14.1l-40.1,0l0,-14.1z"/>
     </defs>
     <clipPath stroke="null" id="svg_131" class="st6">
      <use stroke="null" xlink:href="#svg_104" id="svg_130"/>
     </clipPath>
     <defs id="svg_133" stroke="null">
      <path stroke="null" id="svg_132" d="m29.5,55l40,0l0,14.1l-40,0l0,-14.1z"/>
     </defs>
     <clipPath stroke="null" id="svg_135" class="st7">
      <use stroke="null" xlink:href="#svg_101" id="svg_134"/>
     </clipPath>
     <linearGradient stroke="null" id="svg_140" gradientUnits="userSpaceOnUse" y1="135" x2="1" y2="135" gradientTransform="matrix(0 14.0521 14.0521 0 -1847.569 54.995)">
      <stop id="svg_136" stroke="null" offset="0" stop-color="#231f20"/>
      <stop id="svg_137" stroke="null" offset="0.153" stop-color="#464344"/>
      <stop id="svg_138" stroke="null" offset="0.742" stop-color="#cac9c9"/>
      <stop id="svg_139" stroke="null" offset="1" stop-color="#fff"/>
     </linearGradient>
     <path stroke="null" class="st8" d="m29.5,55l40,0l0,14.1l-40,0l0,-14.1z" id="svg_141"/>
    </g>
   </g>
  </mask>
  <g id="svg_183">
   <g transform="matrix(1.7575067790294625,0,0,1.6931481584472972,-128.27383471707134,-128.39773435517213) " stroke="null" id="svg_177">
    <path stroke="null" class="st2" d="m110.011435,105.975906c2.05433,6.24197 2.84445,17.38271 8.77038,17.38271c0.47407,0 0.94814,-0.07901 1.34321,-0.15802c-5.45186,-1.2642 -6.08396,-12.24692 -9.40247,-18.01482c-0.15803,0.23704 -0.47408,0.47408 -0.71111,0.79013" id="svg_145"/>
    <path stroke="null" class="st3" d="m110.801565,105.185776c3.31852,5.68889 3.95061,16.75062 9.40247,18.01482c0.39506,-0.07901 0.86913,-0.15803 1.26419,-0.31605c-4.89876,-2.37037 -6.24197,-13.11605 -9.95555,-18.25185c-0.23704,0.15802 -0.47408,0.39506 -0.71111,0.55308" id="svg_146"/>
    <path stroke="null" class="st1" d="m115.542305,101.788246c-0.47408,0 -0.94815,0.07901 -1.34321,0.15803c-1.18519,0.23703 -2.44938,0.71111 -3.63457,1.50123c0.31605,0.31605 0.6321,0.71111 0.94815,1.10617c1.2642,-1.02716 2.52839,-1.81728 3.79259,-2.29135c0.47408,-0.15803 0.94815,-0.31605 1.42222,-0.39507c-0.39506,0 -0.79012,-0.07901 -1.18518,-0.07901" id="svg_147"/>
    <path stroke="null" class="st2" d="m125.260825,120.672196c0.47407,-0.39506 1.02716,-0.86913 1.50123,-1.34321c-2.05432,-6.24197 -2.84444,-17.54074 -8.84938,-17.54074c-0.39506,0 -0.86914,0.07901 -1.2642,0.15803c5.45185,1.34321 6.16296,13.27407 8.61235,18.72592" id="svg_148"/>
    <g stroke="null" class="st9" id="svg_154" transform="matrix(0.7901234685638805,0,0,0.7901234685638805,0,0) ">
     <defs id="svg_150" stroke="null" transform="translate(1.7985612998927536e-14,2.8677749633789062) translate(2.640395402908325,-1.7985612998927536e-14) translate(1.7985612998927536e-14,-1.7985612998927536e-14) translate(0.00000296313623948663,1.7985612998927536e-14) translate(1.7985612998927536e-14,1.3697816133499146) translate(-0.000008889409400580917,1.7985612998927536e-14) translate(-1.294590711593628,-0.5431053638458252) translate(19.936697006225586,16.564714431762695) translate(1.7985612998927536e-14,1.7985612998927536e-14) translate(0,0.0014555020024999976) translate(0.000009089924787986092,0) translate(0,11.077132225036621) translate(0.7947927713394165,0) translate(71.48479461669922,80.29674530029297) translate(-42.8908805847168,-46.34577178955078) translate(0,-0.5389043688774109) translate(-432.48779296875,-309.148681640625) translate(329.97216796875,224.2529296875) translate(1.601806640625,1.601806640625) translate(1.601806640625,1.601806640625) translate(1.601806640625,1.601806640625) translate(-267.501708984375,-152.171630859375) translate(369.60205078125,0) translate(0,234.931640625) ">
      <path stroke="null" id="svg_149" d="m47.7,55.5l3,0l0,0.2l-3,0l0,-0.2z"/>
     </defs>
     <clipPath stroke="null" transform="translate(1.7985612998927536e-14,2.8677749633789062) translate(2.640395402908325,-1.7985612998927536e-14) translate(1.7985612998927536e-14,-1.7985612998927536e-14) translate(0.00000296313623948663,1.7985612998927536e-14) translate(1.7985612998927536e-14,1.3697816133499146) translate(-0.000008889409400580917,1.7985612998927536e-14) translate(-1.294590711593628,-0.5431053638458252) translate(19.936697006225586,16.564714431762695) translate(1.7985612998927536e-14,1.7985612998927536e-14) translate(0,0.0014555020024999976) translate(0.000009089924787986092,0) translate(0,11.077132225036621) translate(0.7947927713394165,0) translate(71.48479461669922,80.29674530029297) translate(-42.8908805847168,-46.34577178955078) translate(0,-0.5389043688774109) translate(-432.48779296875,-309.148681640625) translate(329.97216796875,224.2529296875) translate(1.601806640625,1.601806640625) translate(1.601806640625,1.601806640625) translate(1.601806640625,1.601806640625) translate(-267.501708984375,-152.171630859375) translate(369.60205078125,0) translate(0,234.931640625) " id="svg_152">
      <use stroke="null" xlink:href="#svg_89" id="svg_151"/>
     </clipPath>
     <path stroke="null" class="st10" d="m147.633232,129.025747c-0.4,-0.1 -0.9,-0.2 -1.4,-0.2l3,0c-0.5,0.1 -1.1,0.1 -1.6,0.2" id="svg_153"/>
    </g>
    <path stroke="null" class="st3" d="m125.181815,122.015406l-0.71112,-0.71111c-1.02716,0.71111 -2.05432,1.2642 -3.00246,1.58025c0.39506,0.15802 0.71111,0.31605 1.10617,0.39506c0.31605,0.07901 0.6321,0.07901 0.94815,0.07901c1.10617,0 1.97531,-0.15802 2.76543,-0.47407c-0.39506,-0.23704 -0.79012,-0.55309 -1.10617,-0.86914m-9.95556,-19.67407c4.89877,2.52839 5.29383,14.22222 9.24444,18.88395c0.23704,-0.15803 0.55309,-0.39506 0.79013,-0.55309c-2.44939,-5.45185 -3.1605,-17.38271 -8.61235,-18.72592c-0.47407,0.07901 -0.94815,0.23703 -1.42222,0.39506" id="svg_155"/>
    <path stroke="null" class="st1" d="m111.512675,104.632696c3.79259,5.1358 5.1358,15.88148 9.95556,18.25185c1.02716,-0.31605 1.9753,-0.86914 3.00246,-1.58025c-3.95061,-4.74074 -4.34567,-16.35556 -9.24444,-18.88395c-1.2642,0.39506 -2.44938,1.18519 -3.71358,2.21235" id="svg_156"/>
    <path stroke="null" class="st2" d="m107.641075,105.817876c-0.55309,1.34321 -1.18519,3.08148 -1.8963,5.37284c1.42222,-2.05432 2.92346,-3.79259 4.34568,-5.21481c-0.23704,-0.6321 -0.39506,-1.18519 -0.6321,-1.65926c-0.6321,0.39506 -1.2642,0.94815 -1.81728,1.50123" id="svg_157"/>
    <path stroke="null" class="st3" d="m109.932425,103.921576c-0.15802,0.15803 -0.31605,0.23704 -0.55308,0.39507c0.23703,0.47407 0.47407,1.02716 0.6321,1.65926c0.23703,-0.23704 0.55308,-0.47408 0.79012,-0.71112c-0.23704,-0.55308 -0.55309,-0.94814 -0.86914,-1.34321" id="svg_158"/>
    <path stroke="null" class="st2" d="m110.564525,103.526516c-0.23704,0.15803 -0.39506,0.23704 -0.6321,0.39507c0.31605,0.39506 0.6321,0.86913 0.86914,1.34321c0.23704,-0.23704 0.47407,-0.39507 0.71111,-0.6321c-0.31605,-0.39507 -0.6321,-0.79013 -0.94815,-1.10618m33.42222,-2.21234c-2.76543,10.66666 -8.53333,19.27901 -13.43209,21.49136c-0.07902,0 -0.15803,0.07901 -0.23704,0.07901l-0.07901,0c-0.07902,0 -0.07902,0 -0.15803,0.07901l-0.79012,0c0.23704,0.07901 0.47407,0.15802 0.71111,0.15802c4.58272,0 9.24444,-8.29629 16.90864,-21.96543l-2.92346,0l0,0.15803zm-39.26913,0.94815l0.15802,0c0.07902,0 0.07902,-0.07902 0.15803,-0.07902l0.15802,0c0.07902,0 0.15803,-0.07901 0.23704,-0.07901l0.71111,0l-0.47407,0c-5.21482,0 -12.32593,9.63951 -15.56543,22.12346l0.63209,0c1.02717,-1.81729 1.97531,-3.55556 2.76544,-5.21482c2.52839,-9.16543 7.11111,-15.17037 11.21975,-16.75061" id="svg_159"/>
    <path stroke="null" class="st3" d="m107.641075,105.817876c0.55308,-0.55309 1.18518,-1.10617 1.73827,-1.50123c-0.15803,-0.31605 -0.23704,-0.55309 -0.39506,-0.79013c-0.47408,0.55309 -0.94815,1.2642 -1.34321,2.29136" id="svg_160"/>
    <path stroke="null" class="st2" d="m108.036135,102.341336c0.31605,0.31605 0.63209,0.71111 0.94814,1.10617c0.07902,-0.07901 0.15803,-0.23704 0.23704,-0.31605c-0.39506,-0.31605 -0.79012,-0.6321 -1.18518,-0.79012" id="svg_161"/>
    <path stroke="null" class="st3" d="m93.734895,118.696886c4.74074,-9.08642 6.95309,-14.85432 10.90371,-16.43456c-4.02963,1.58024 -8.61235,7.58518 -10.90371,16.43456" id="svg_162"/>
    <path stroke="null" class="st1" d="m109.221315,103.210466c-0.07901,0.07902 -0.15802,0.15803 -0.23703,0.31605c0.15802,0.23704 0.31604,0.55309 0.39506,0.79013c0.15802,-0.15803 0.31605,-0.23704 0.55308,-0.39507c-0.23703,-0.31604 -0.47407,-0.55308 -0.71111,-0.71111" id="svg_163"/>
    <path stroke="null" class="st2" d="m95.947245,123.911706l-0.31605,0c4.81975,-0.15803 6.95308,-2.5284 8.05926,-6.00494c0.79012,-2.60741 1.50123,-4.81975 2.13333,-6.71605c-1.97531,2.84445 -4.02963,6.16297 -6.08395,9.95556c-1.02716,1.81728 -2.5284,2.52839 -3.79259,2.76543" id="svg_164"/>
    <path stroke="null" class="st3" d="m95.947245,123.832696c1.2642,-0.15803 2.76543,-0.94815 3.71358,-2.76544c2.05432,-3.79259 4.02963,-7.11111 6.08395,-9.95555c0.71111,-2.29136 1.34321,-4.02963 1.89629,-5.37284c-4.02963,3.8716 -8.05925,10.19259 -11.69382,18.09383m-2.21235,-5.13581c-0.86913,1.65926 -1.73827,3.39753 -2.76543,5.21482l1.81728,0c0.23704,-1.81729 0.55309,-3.55556 0.94815,-5.21482" id="svg_165"/>
    <path stroke="null" class="st1" d="m106.218845,101.867256l-0.55308,0c-0.07902,0 -0.15803,0.07902 -0.23704,0.07902l-0.15803,0c-0.07901,0 -0.07901,0.07901 -0.15802,0.07901l-0.31605,0.15802l-0.07901,0c-3.95062,1.58025 -6.16296,7.34815 -10.90371,16.43457c-0.39506,1.65926 -0.79012,3.39753 -1.02716,5.21482l3.08149,0c3.71358,-7.98025 7.74321,-14.30124 11.69382,-18.09383c0.47408,-1.02716 0.86914,-1.73827 1.34321,-2.29136c-0.31605,-0.47407 -0.55308,-0.86914 -0.94815,-1.10617l-0.39506,0s-0.07901,0 -0.07901,-0.07901l-0.55309,0c-0.07901,0 -0.15802,-0.07902 -0.23703,-0.07902l-0.31605,0c0,-0.31604 -0.07901,-0.31604 -0.15803,-0.31604" id="svg_166"/>
    <path stroke="null" class="st11" d="m106.218845,101.867256l-0.55308,0c-0.07902,0 -0.15803,0.07902 -0.23704,0.07902l-0.15803,0c-0.07901,0 -0.07901,0.07901 -0.15802,0.07901l-0.31605,0.15802l-0.07901,0c-3.95062,1.58025 -6.16296,7.34815 -10.90371,16.43457c-0.39506,1.65926 -0.79012,3.39753 -1.02716,5.21482l3.08149,0c3.71358,-7.98025 7.74321,-14.30124 11.69382,-18.09383c0.47408,-1.02716 0.86914,-1.73827 1.34321,-2.29136c-0.31605,-0.47407 -0.55308,-0.86914 -0.94815,-1.10617l-0.39506,0s-0.07901,0 -0.07901,-0.07901l-0.55309,0c-0.07901,0 -0.15802,-0.07902 -0.23703,-0.07902l-0.31605,0c0,-0.31604 -0.07901,-0.31604 -0.15803,-0.31604" id="svg_167"/>
    <path stroke="null" class="st3" d="m133.162055,107.240096c-0.94815,2.92346 -1.65926,5.29383 -2.29136,7.26914c2.5284,-3.47654 4.97778,-7.74321 7.26914,-12.72099c-2.68642,0.86914 -4.18765,2.84445 -4.97778,5.45185m-2.21234,15.40741c-0.15803,0.07901 -0.23704,0.15803 -0.39506,0.15803c4.89876,-2.13334 10.66666,-10.74568 13.43209,-21.49136l-0.55308,0c-6.4,11.45679 -8.45432,19.04197 -12.48395,21.33333m-3.1605,-0.94815c1.02716,-1.26419 1.8963,-3.47654 3.08148,-7.11111c-1.34321,1.8963 -2.68642,3.47655 -4.10864,4.74074c0.31605,0.94815 0.6321,1.73828 1.02716,2.37037m0,0c-0.39506,0.47408 -0.71111,0.79013 -1.18518,1.02716c-0.07901,0.07902 -0.15803,0.07902 -0.31605,0.15803c0.47407,0.23704 0.94815,0.39506 1.50123,0.47407l1.18519,0c0.07901,0 0.15802,0 0.23704,-0.07901c-0.47408,-0.31605 -0.94815,-0.86913 -1.42223,-1.58025" id="svg_168"/>
    <path stroke="null" class="st2" d="m118.781805,123.358616c0.47408,0 0.94815,-0.07901 1.34321,-0.15802s0.86914,-0.15803 1.2642,-0.31605c0.39506,0.15802 0.71111,0.31605 1.10618,0.39506c0.31604,0.07901 0.63209,0.07901 0.94814,0.07901l-4.66172,0l-0.00001,0zm4.74075,0c1.10617,0 1.9753,-0.15802 2.76543,-0.47407c0.47407,0.23704 0.94815,0.39506 1.50123,0.47407l0.47408,0l-4.74074,0z" id="svg_169"/>
    <path stroke="null" class="st12" d="m128.342305,123.358616l0.71111,0c0.07901,0 0.15803,0 0.23704,-0.07901c0.23703,0.07901 0.47407,0.15802 0.71111,0.15802l-1.65926,-0.07901z" id="svg_170"/>
    <path stroke="null" class="st1" d="m126.762055,119.328986c-0.47407,0.47408 -1.02716,0.94815 -1.50123,1.34321c-0.23704,0.23704 -0.55309,0.39506 -0.79012,0.55309l0.71111,0.71111c0.39506,0.31605 0.71111,0.6321 1.18518,0.86913c0.07901,-0.07901 0.15803,-0.07901 0.31605,-0.15802c0.39506,-0.23704 0.79012,-0.55309 1.18519,-1.02716c-0.47408,-0.55309 -0.79013,-1.34321 -1.10618,-2.29136" id="svg_171"/>
    <path stroke="null" class="st1" d="m141.616375,101.314176l-3.31851,0l-0.23704,0.47407c-2.37037,4.97778 -4.81976,9.32346 -7.26914,12.72099c-1.18518,3.63457 -2.05432,5.84691 -3.08148,7.11111c0.47407,0.79012 0.94815,1.34321 1.58025,1.58025l0.79012,0c0.07901,0 0.07901,0 0.15802,-0.07902l0.07902,0c0.07901,0 0.15802,-0.07901 0.23703,-0.07901c0.15803,-0.07901 0.23704,-0.07901 0.39507,-0.15802c4.02963,-2.29136 6.08395,-9.87655 12.48395,-21.25432l-1.81729,0l0,-0.31605z" id="svg_172"/>
    <path stroke="null" class="st3" d="m106.376875,101.867256l0.31605,0c0.07901,0 0.15802,0 0.23703,0.07902l0.55309,0s0.07901,0 0.07901,0.07901l0.31605,0c0.47407,0.23704 0.86914,0.55308 1.2642,0.86913c0.15802,-0.15802 0.31605,-0.31605 0.47407,-0.39506c-0.86913,-0.6321 -1.81728,-0.94815 -2.92345,-0.94815c-0.07902,0.31605 -0.15803,0.31605 -0.31605,0.31605m2.84444,1.34321l0.71111,0.71111c0.23704,-0.15802 0.39506,-0.31605 0.6321,-0.39506c-0.23704,-0.23704 -0.55309,-0.47407 -0.86914,-0.71111c-0.15802,0.07901 -0.31604,0.23704 -0.47407,0.39506" id="svg_173"/>
    <path stroke="null" class="st2" d="m106.376875,101.867256l0.39506,0c1.10617,0 2.05432,0.31605 2.92346,0.94815c0.86913,-0.71111 1.97531,-0.94815 3.47654,-0.94815l-7.26914,0c0.15803,-0.07901 0.31605,0 0.47408,0" id="svg_174"/>
    <path stroke="null" class="st3" d="m113.171935,101.788246c-1.50124,0 -2.60741,0.23704 -3.47654,0.94815c0.31604,0.23704 0.55308,0.47407 0.86913,0.71111c1.2642,-0.79012 2.44938,-1.34321 3.63457,-1.50123c0.47407,-0.07902 0.94815,-0.15803 1.34321,-0.15803l-2.37037,0z" id="svg_175"/>
    <path stroke="null" class="st2" d="m130.870705,114.588246c0.63209,-1.97531 1.34321,-4.42469 2.29135,-7.26913c0.79013,-2.60741 2.29136,-4.58272 4.97778,-5.45186l0.23704,-0.47407c-4.42469,0.23704 -6.55803,2.52839 -7.58519,5.92593c-1.81728,5.84691 -2.92345,9.6395 -4.02963,12.08888c1.42223,-1.34321 2.76544,-3.00246 4.10865,-4.81975" id="svg_176"/>
   </g>
   <text transform="matrix(1.7575067790294625,0,0,1.6931481584472972,-128.27383471707134,-128.39773435517213) " stroke="null" fill="#ffffff" stroke-width="0" stroke-opacity="null" x="100.169333" y="153.144723" id="svg_178" font-size="12" font-family="Arvo, sans-serif" text-anchor="start" xml:space="preserve" font-weight="normal">CORE</text>
   <g transform="matrix(1.7575067790294625,0,0,1.6931481584472972,-128.27383471707134,-128.39773435517213) " stroke="null" id="svg_181">
    <text stroke="null" fill="#ffffff" stroke-width="0" stroke-opacity="null" x="116.216203" y="140.894727" id="svg_179" font-size="12" font-family="Arvo, sans-serif" text-anchor="start" xml:space="preserve" font-weight="normal">.NET</text>
    <text stroke="null" fill="#ffffff" stroke-width="0" stroke-opacity="null" x="93.716211" y="140.894726" id="svg_180" font-size="12" font-family="Arvo, sans-serif" text-anchor="start" xml:space="preserve" font-weight="bold">ASP</text>
   </g>
  </g>
 </g>
</svg>