<svg width="101" height="51" fill="none" xmlns="http://www.w3.org/2000/svg"><path d="M12.827.811h2.005c.127 0 .213.086.213.213v20.342c0 .128-.085.213-.213.213h-2.005c-.128 0-.213-.085-.213-.213V1.025c.043-.128.128-.214.213-.214Zm13.945 16.76v.511c0 .299-.043.64-.128.938-.085.427-.298.81-.597 1.152-.427.426-.896.767-1.45.98-.853.299-1.748.47-2.687.427-.895.043-1.833-.128-2.686-.427a3.803 3.803 0 0 1-1.45-.98c-.299-.341-.512-.725-.597-1.152-.085-.298-.085-.597-.128-.895V6.483c0-.128.085-.213.213-.213h2.005c.128 0 .213.085.213.213v10.831c0 .256.042.555.085.81.085.214.17.427.341.598.213.213.427.383.725.469.427.128.853.213 1.28.213.426 0 .895-.043 1.322-.213.255-.085.511-.213.724-.427.171-.17.299-.34.342-.554a2.75 2.75 0 0 0 .128-.853V6.483c0-.128.085-.213.17-.213h2.047c.128 0 .213.085.213.213l-.085 11.087Zm6.95-11.259h1.365c.086 0 .171.086.171.17v.044l-.469 1.79c0 .086-.085.129-.17.129h-.939c-.426 0-.853.042-1.236.213a1.926 1.926 0 0 0-.725.469c-.171.17-.256.341-.341.554-.043.17-.086.384-.086.555v11.087c0 .128-.085.213-.213.213h-2.047c-.085 0-.17-.085-.17-.213V9.767c0-.299.042-.598.127-.896.086-.426.299-.853.597-1.151.427-.427.896-.768 1.45-.981.853-.341 1.749-.47 2.687-.427Zm-27.93 0c1.662 0 2.856.341 3.666.981a3.182 3.182 0 0 1 1.152 2.474v8.358c0 .384-.085.767-.213 1.108a2.4 2.4 0 0 1-.725 1.11 4.01 4.01 0 0 1-1.493.852 6.717 6.717 0 0 1-2.43.341c-.81 0-1.664-.085-2.431-.34a3.54 3.54 0 0 1-1.45-.854 2.4 2.4 0 0 1-.725-1.108c-.128-.342-.17-.726-.213-1.11v-1.321c0-.683.213-1.365.554-1.92a2.777 2.777 0 0 1 1.578-1.278c.341-.129.725-.214 1.151-.384.427-.17.853-.299 1.28-.427.426-.128.725-.256 1.066-.384.34-.127.511-.17.554-.213.085-.042.17-.085.299-.17.128-.086.255-.17.34-.299a1.53 1.53 0 0 0 .3-.426c.085-.17.127-.384.127-.597v-.597c0-.427-.213-.853-.512-1.152-.213-.17-.469-.34-.725-.426-.383-.128-.767-.17-1.194-.128-.938 0-1.577.213-1.919.597-.298.341-.469.768-.511 1.237 0 .085-.086.17-.17.17H1.142c-.128 0-.213-.085-.213-.213V9.68c0-.469.085-.895.256-1.322.17-.426.469-.81.852-1.108a3.751 3.751 0 0 1 1.493-.725c.768-.171 1.535-.214 2.26-.214Zm2.43 7.463c-.043.17-.128.341-.299.426-.128.086-.256.171-.426.214-.299.085-.597.213-.938.298a6.08 6.08 0 0 0-.938.341c-.299.128-.683.214-.939.341-.213.128-.469.256-.64.384-.17.17-.34.384-.468.597a2.128 2.128 0 0 0-.214.896 2.246 2.246 0 0 0 .512 1.62c.341.341.98.512 1.92.512.937 0 1.577-.213 1.918-.554.384-.427.554-.981.512-1.578v-3.497Zm32.75-7.463c1.663 0 2.858.341 3.668.981a3.182 3.182 0 0 1 1.151 2.474v8.358c0 .384-.085.767-.213 1.108a2.4 2.4 0 0 1-.725 1.11 4.009 4.009 0 0 1-1.493.852 6.717 6.717 0 0 1-2.43.341c-.81 0-1.663-.085-2.431-.34a3.54 3.54 0 0 1-1.45-.854 2.4 2.4 0 0 1-.725-1.108c-.128-.342-.17-.726-.213-1.11v-1.321c0-.683.213-1.365.554-1.92a2.777 2.777 0 0 1 1.578-1.278c.341-.129.725-.214 1.151-.384.427-.17.853-.299 1.28-.427.426-.128.725-.256 1.066-.384.341-.127.512-.17.554-.213.086-.042.214-.085.299-.17.128-.086.256-.17.341-.299.128-.128.213-.256.299-.426.085-.17.127-.384.127-.597v-.597c0-.427-.213-.853-.511-1.152-.213-.17-.47-.34-.725-.426a3.68 3.68 0 0 0-1.194-.17c-.938 0-1.578.212-1.92.596-.298.341-.468.768-.511 1.237 0 .085-.085.17-.17.17h-2.047c-.128 0-.214-.085-.171-.213v-.469c0-.469.085-.895.256-1.322.17-.426.469-.81.853-1.108.469-.342.98-.598 1.492-.725.768-.171 1.535-.214 2.26-.214Zm2.431 7.463c-.043.17-.128.341-.298.426-.128.086-.256.171-.427.214-.298.085-.597.213-.938.298-.341.086-.64.213-.938.341-.299.128-.682.214-.938.341-.214.128-.47.256-.64.384a3.22 3.22 0 0 0-.47.597c-.17.256-.212.597-.212.896a2.246 2.246 0 0 0 .511 1.62c.342.341.981.512 1.877.512.895 0 1.578-.213 1.919-.554.34-.427.554-.981.511-1.578l.043-3.497Z" fill="#fff"/><path d="M13.169 26.142c3.411 0 5.885 1.066 8.188 3.155a.635.635 0 0 1 .042.939l-2.644 2.729c-.256.256-.597.256-.853 0a6.922 6.922 0 0 0-4.563-1.749c-3.838 0-6.652 3.199-6.652 6.994 0 3.753 2.857 6.866 6.695 6.866 1.578 0 3.326-.597 4.563-1.62.256-.214.682-.214.895.042l2.644 2.814a.618.618 0 0 1-.042.896c-2.303 2.217-5.203 3.284-8.23 3.284-6.78 0-12.24-5.374-12.24-12.154A12.14 12.14 0 0 1 13.17 26.142ZM22.466 49.34l10.618-22.814c.086-.214.341-.384.597-.384h.299c.256 0 .469.17.597.384L45.195 49.34c.213.427-.085.896-.597.896h-3.752c-.597 0-.896-.213-1.194-.853l-1.237-2.687h-9.211l-1.237 2.73c-.17.426-.554.81-1.237.81h-3.71c-.511 0-.767-.427-.554-.896Zm13.945-7.25-2.559-5.586h-.043l-2.558 5.587h5.16ZM46.602 46.995l1.578-2.815c.256-.426.896-.384 1.151-.213.128.085 2.56 1.876 4.82 1.876 1.364 0 2.345-.853 2.345-2.047 0-1.407-1.194-2.516-3.497-3.411-2.9-1.151-6.567-3.412-6.567-7.505 0-3.37 2.6-6.738 7.846-6.738 3.54 0 6.226 1.79 7.25 2.559.426.255.34.852.213 1.066l-1.749 2.6c-.255.385-.852.683-1.151.427-.299-.17-2.772-2.047-4.861-2.047-1.237 0-2.133.81-2.133 1.749 0 1.236 1.024 2.217 3.71 3.283 2.644 1.066 6.866 3.113 6.866 7.719 0 3.497-3.028 7.036-8.017 7.036-4.392 0-6.866-1.834-7.633-2.601-.341-.299-.427-.47-.17-.938ZM66.56 27.123c0-.342.255-.64.64-.64h14.03c.383 0 .639.298.639.64v3.71c0 .34-.256.64-.64.64h-9.382v4.221h7.762c.34 0 .64.298.64.64v3.71c0 .384-.3.64-.64.64H71.89v4.562h9.382c.383 0 .64.299.64.64v3.71c0 .341-.257.64-.64.64h-14.03a.628.628 0 0 1-.64-.64V27.123h-.042ZM85.109 46.995l1.578-2.815c.256-.426.895-.384 1.151-.213.128.085 2.559 1.876 4.819 1.876 1.365 0 2.345-.853 2.345-2.047 0-1.407-1.194-2.516-3.496-3.411-2.9-1.151-6.567-3.412-6.567-7.505 0-3.37 2.6-6.738 7.846-6.738 3.54 0 6.226 1.79 7.249 2.559.427.255.342.852.214 1.066l-1.749 2.6c-.256.385-.853.683-1.151.427-.299-.17-2.772-2.047-4.861-2.047-1.237 0-2.133.81-2.133 1.749 0 1.236 1.024 2.217 3.71 3.283 2.644 1.066 6.866 3.113 6.866 7.719 0 3.497-3.028 7.036-8.017 7.036-4.392 0-6.866-1.834-7.633-2.601-.341-.299-.47-.47-.171-.938Z" fill="#A56CFF"/></svg>