<svg width="198" height="61" fill="none" xmlns="http://www.w3.org/2000/svg"><path d="M101.9 45.312c0-4.518.09-9.172-11.112-9.172-2.754 0-5.734.272-7.994 1.354-2.302 1.086-3.93 3.026-4.066 6.322h8.314c.042-.994.586-2.394 3.344-2.394 1.444 0 2.936.586 2.936 2.166 0 1.49-1.22 1.852-2.44 2.08-4.56.858-13.232.586-13.232 7.994 0 4.924 3.748 7.092 8.266 7.092 2.888 0 5.646-.632 7.54-2.802h.094c-.044.63.092 1.58.314 2.212h9.124c-.994-1.49-1.086-3.48-1.086-5.24v-9.612h-.002Zm-8.58 6.504c-.136 2.44-1.718 3.66-3.748 3.66-1.626 0-2.802-1.086-2.802-2.168 0-1.58 1.038-2.08 3.026-2.53 1.22-.27 2.438-.586 3.522-1.128v2.166h.002Zm-40.16 8.358h23.4v-6.506H64.906L75.61 43.596V36.73H54.156v6.506h9.98L53.162 53.264v6.91h-.002Zm-2.53-32.25h-8.942V34.2h8.942v-6.276Zm-8.942 32.25h8.942V36.73h-8.942v23.444ZM37.532 36.73h-8.944v12.376c0 3.748-2.03 4.52-3.568 4.52-2.618 0-2.936-1.898-2.936-4.608V36.73H13.14v16.08c0 5.376 3.84 7.95 8.04 7.95 3.57 0 5.964-1.22 7.636-3.568h.092v2.98h8.628v-23.44h-.004v-.002ZM0 60.174h8.944v-32.25H0v32.25ZM170.18 47.66l-3.566-.314c-2.592-.24-3.884-1.326-3.884-3.252 0-2.44 1.656-3.66 4.97-3.66 2.408 0 4.38.588 5.918 1.76l2.122-2.122c-1.956-1.594-4.622-2.394-7.994-2.394-2.408 0-4.374.586-5.894 1.76-1.52 1.172-2.282 2.754-2.282 4.74 0 3.586 2.214 5.572 6.64 5.964l3.66.314c2.468.21 3.704 1.296 3.704 3.252 0 2.62-1.974 3.932-5.92 3.932-2.98 0-5.284-.86-6.912-2.574l-2.166 2.166c2.228 2.138 5.27 3.206 9.124 3.206 2.74 0 4.93-.604 6.572-1.808 1.64-1.204 2.462-2.86 2.462-4.968-.004-3.61-2.188-5.61-6.552-6l-.002-.002Zm-17.978 7.274c-.874 1.746-2.408 2.618-4.604 2.618-2.2 0-3.736-.872-4.606-2.62-.662-1.294-.994-3.252-.994-5.87 0-2.618.332-4.574.994-5.87.872-1.746 2.408-2.622 4.606-2.622 2.196 0 3.734.876 4.604 2.62.632 1.298.95 3.254.95 5.872 0 2.62-.32 4.576-.95 5.872Zm1.49-15.314c-1.296-1.296-3.104-1.942-5.42-1.942-2.71 0-4.802.948-6.278 2.844v-12.51h-3.252V60.17h3.252v-2.666c1.506 1.958 3.6 2.936 6.278 2.936 2.32 0 4.124-.646 5.42-1.942 1.808-1.808 2.71-4.952 2.71-9.44.004-4.482-.902-7.63-2.71-9.438Zm-24.48 16.53c-1.024.994-2.684 1.494-4.97 1.494-3.4 0-5.104-1.266-5.104-3.796 0-2.62 1.656-3.932 4.97-3.932h6.232v2.396c0 1.838-.376 3.116-1.128 3.84v-.002Zm4.38-11.066c0-4.938-2.966-7.406-8.898-7.406-1.868 0-3.374.226-4.518.678-1.264.512-2.38 1.384-3.34 2.618l2.21 2.03c1.204-1.684 3.074-2.528 5.604-2.528 3.794 0 5.69 1.628 5.69 4.876v2.124h-6.684c-2.44 0-4.33.572-5.668 1.716-1.34 1.146-2.01 2.71-2.01 4.696 0 1.87.556 3.372 1.672 4.52 1.326 1.352 3.42 2.03 6.278 2.03 2.68 0 4.816-.798 6.412-2.394v2.122h3.254V45.084h-.002Zm-18.7 12.288h-1.76c-1.988 0-2.98-1.082-2.98-3.252V28.012h-3.254v26.242c0 1.778.476 3.21 1.424 4.292.95 1.084 2.358 1.628 4.224 1.628h2.35v-2.802h-.004ZM181.004.76a16.009 16.009 0 1 0 3.361 31.66 16.008 16.008 0 0 0 11.03-8.643 16.013 16.013 0 0 0 .399-13.132 15.997 15.997 0 0 0-8.663-8.666A16.016 16.016 0 0 0 181.004.76Zm6.12 21.92a8.513 8.513 0 0 1-13.634-9.91 8.507 8.507 0 0 1 6.626-4.47 8.51 8.51 0 0 1 7.006 14.38h.002Z" fill="#fff"/></svg>