<svg width="24" height="24" fill="none" xmlns="http://www.w3.org/2000/svg"><path d="M.366 23.903h6.215V7.562H.365v16.341zM1.772 8.968h3.402v13.529H1.772V8.968zM3.473.097A3.477 3.477 0 0 0 0 3.57a3.477 3.477 0 0 0 3.473 3.474A3.477 3.477 0 0 0 6.947 3.57 3.477 3.477 0 0 0 3.473.097zM1.406 3.57a2.07 2.07 0 0 1 2.067-2.067A2.07 2.07 0 0 1 5.541 3.57a2.07 2.07 0 0 1-2.068 2.067A2.07 2.07 0 0 1 1.406 3.57zm22.579 9.123c-.221-3.18-2.874-5.631-6.164-5.631-1.47 0-2.86.511-3.954 1.419v-.92H7.912v16.342h6.215v-8.937a1.83 1.83 0 0 1 1.826-1.827c1.008 0 1.827.82 1.827 1.827l.006 8.937H24V12.708l-.015-.015zM12.72 22.497H9.319V8.968h3.142v2.009l1.125.006.209-.325a4.768 4.768 0 0 1 4.026-2.19c2.618 0 4.713 1.997 4.771 4.546l.002 9.483h-3.402l-.006-7.531a3.237 3.237 0 0 0-3.232-3.233 3.237 3.237 0 0 0-3.234 3.233v7.53z" fill="#fff"/></svg>