<svg width="147" height="19" fill="none" xmlns="http://www.w3.org/2000/svg"><g clip-path="url(#clip0)"><path d="M9.619 2.875V0H0v19h9.619v-2.875H2.91V2.875h6.708zm2.91 13.25V19h9.619V0H12.53v2.875h6.707v13.25H12.53z" fill="#F7F7F8"/><path d="M16.326 5.75H12.53v2.875h3.796V5.75z" fill="#48D359"/><path d="M5.822 5.75v2.844h3.797v7.531h2.91V5.75H5.823zm33.443.094h4.936c1.614 0 2.721.406 3.417 1.125.601.593.95 1.375.95 2.406v.031c0 1.594-.823 2.594-2.152 3.156l2.468 3.594h-3.322l-2.12-3.125h-1.266v3.125h-2.879l-.032-10.312zm4.81 4.937c.98 0 1.55-.469 1.55-1.219v-.03c0-.813-.601-1.22-1.582-1.22h-1.898v2.47h1.93zm7.53-4.937h8.385V8.28h-5.506v1.563h5v2.25h-5v1.625h5.569v2.437h-8.448V5.844zm11.612 0h2.91v10.312h-2.91V5.844zm6.423 0h2.721l4.271 5.437V5.844h2.88v10.312H76.98L72.55 10.5v5.656h-2.879V5.844h-.031zm16.927-.063h2.785l4.43 10.375H90.68l-.76-1.843h-4.018l-.728 1.843h-3.037l4.43-10.375zm2.532 6.313l-1.171-2.938-1.17 2.938h2.34zm23.508-6.25h8.385V8.28h-5.506v1.563h5v2.25h-5v1.625h5.601v2.437h-8.448V5.844h-.032zm11.58 0h5.348c1.297 0 2.246.343 2.847.937.412.438.665.969.665 1.657 0 1.187-.665 1.906-1.614 2.312 1.266.406 2.057 1.125 2.057 2.5v.031c0 1.75-1.456 2.844-3.955 2.844h-5.379l.031-10.281zm4.652 4.125c.854 0 1.36-.313 1.36-.906V9.03c0-.562-.443-.906-1.297-.906h-1.867v1.813h1.804v.03zm.411 3.906c.854 0 1.392-.344 1.392-.969v-.031c0-.563-.443-.938-1.392-.938h-2.215v1.907h2.215v.031z" fill="#F7F7F8"/><path d="M147.032 12.906h-10.568v2.875h10.568v-2.875z" fill="#48D359"/><path d="M37.082 5.844H26.546v2.875h3.797v7.406h2.91V8.719h3.83V5.844zm69.83 0l-1.835 5.968-2.025-6h-2.5l-1.961 5.813-1.298-3.938-.57-1.843h-3.005l3.449 10.406h2.531l.19-.719h.031V15.5l1.836-5.188 2.12 5.938h2.531l3.48-10.406h-2.974z" fill="#F7F7F8"/></g><defs><clipPath id="clip0"><path fill="#fff" d="M0 0H147V19H0z"/></clipPath></defs></svg>