<svg width="27" height="28" fill="none" xmlns="http://www.w3.org/2000/svg"><g clip-path="url(#clip0)"><path d="M15.323 27.945H10.99c-.724 0-1.313-.609-1.313-1.358V16.473H7.151c-.724 0-1.312-.61-1.312-1.358v-4.334c0-.749.588-1.358 1.312-1.358h2.527v-2.17c0-2.152.653-3.983 1.888-5.294C12.806.642 14.54-.055 16.58-.055l3.304.006c.723.001 1.31.61 1.31 1.358v4.024c0 .749-.588 1.358-1.312 1.358l-2.224.001c-.679 0-.851.14-.888.184-.061.071-.134.274-.134.832v1.715h3.08c.231 0 .456.06.648.17.417.241.676.697.676 1.189l-.002 4.333c0 .749-.589 1.358-1.312 1.358h-3.09v10.114c0 .75-.588 1.358-1.312 1.358zm-4.059-1.641h3.785V15.739c0-.5.393-.907.876-.907h3.526l.002-3.767h-3.528c-.483 0-.876-.407-.876-.907v-2.45c0-.64.063-1.37.53-1.918.566-.663 1.457-.74 2.077-.74h1.951V1.592l-3.029-.005c-3.277 0-5.314 2.171-5.314 5.666v2.905c0 .5-.393.907-.876.907H7.425v3.767h2.963c.483 0 .876.406.876.906v10.566zM19.88 1.592z" fill="#fff"/></g><defs><clipPath id="clip0"><path fill="#fff" d="M0 0H27V28H0z"/></clipPath></defs></svg>