<svg width="26" height="26" fill="none" xmlns="http://www.w3.org/2000/svg"><g clip-path="url(#clip0)"><path d="M13.256 26h-.259a90.407 90.407 0 0 1-5.752-.158c-1.68-.102-3.212-.683-4.433-1.678-1.177-.96-1.982-2.26-2.39-3.86-.356-1.393-.375-2.76-.393-4.083-.013-.95-.026-2.074-.029-3.218.003-1.149.016-2.273.03-3.223.017-1.322.036-2.69.392-4.084.408-1.6 1.213-2.899 2.39-3.86C4.033.842 5.566.262 7.245.16a90.584 90.584 0 0 1 5.757-.158 90.952 90.952 0 0 1 5.752.158c1.68.102 3.212.682 4.433 1.678 1.178.96 1.982 2.26 2.39 3.86.356 1.393.375 2.76.393 4.083.013.95.026 2.074.029 3.218v.005a282.99 282.99 0 0 1-.03 3.218c-.017 1.322-.036 2.69-.392 4.083-.408 1.6-1.212 2.9-2.39 3.86-1.221.995-2.754 1.576-4.433 1.678a89.92 89.92 0 0 1-5.498.158zm-.259-2.031a88.637 88.637 0 0 0 5.634-.155c1.27-.077 2.37-.489 3.272-1.224.834-.68 1.408-1.618 1.706-2.788.296-1.16.313-2.405.33-3.61.012-.942.026-2.059.029-3.192-.003-1.132-.017-2.249-.03-3.192-.016-1.204-.033-2.45-.329-3.61-.298-1.17-.873-2.107-1.706-2.787-.902-.735-2.002-1.147-3.272-1.224a88.748 88.748 0 0 0-5.63-.155 88.512 88.512 0 0 0-5.633.155c-1.27.077-2.37.489-3.272 1.224-.833.68-1.408 1.618-1.706 2.788-.296 1.16-.313 2.405-.33 3.61a286.7 286.7 0 0 0-.029 3.194c.003 1.129.017 2.246.03 3.19.016 1.204.033 2.45.329 3.61.298 1.17.873 2.107 1.706 2.787.902.735 2.003 1.147 3.272 1.224 1.788.109 3.63.16 5.629.155zm-.048-4.62A6.355 6.355 0 0 1 6.6 13c0-3.5 2.848-6.347 6.348-6.347S19.296 9.5 19.296 13c0 3.5-2.847 6.348-6.347 6.348zm0-10.665A4.321 4.321 0 0 0 8.632 13a4.321 4.321 0 0 0 4.317 4.317A4.321 4.321 0 0 0 17.265 13a4.321 4.321 0 0 0-4.316-4.316zm7.058-4.062a1.523 1.523 0 1 0 0 3.046 1.523 1.523 0 0 0 0-3.046z" fill="#fff"/></g><defs><clipPath id="clip0"><path fill="#fff" d="M0 0H26V26H0z"/></clipPath></defs></svg>