<svg width="29" height="29" fill="none" xmlns="http://www.w3.org/2000/svg"><path d="M26.451 4.305H2.55A2.553 2.553 0 0 0 0 6.854v15.293a2.553 2.553 0 0 0 2.549 2.548H26.45A2.552 2.552 0 0 0 29 22.146V6.854a2.551 2.551 0 0 0-2.549-2.55zm-.357 1.699l-9.792 9.74a2.532 2.532 0 0 1-1.802.747c-.68 0-1.32-.265-1.804-.748l-9.79-9.74h23.188zM1.7 21.8V7.2l7.343 7.304L1.699 21.8zm1.208 1.195l7.34-7.293 1.25 1.243A4.22 4.22 0 0 0 14.5 18.19a4.219 4.219 0 0 0 3.002-1.243l1.251-1.244 7.34 7.293H2.907zM27.3 21.801l-7.343-7.296L27.301 7.2v14.6z" fill="#02E7D9"/></svg>