<svg width="67" height="67" fill="none" xmlns="http://www.w3.org/2000/svg"><path d="M25.73 15.75c3.271-5.667 11.45-5.667 14.722 0L51.79 35.386c3.272 5.667-.818 12.75-7.361 12.75H21.754c-6.544 0-10.633-7.083-7.361-12.75L25.73 15.75z" stroke="#000" stroke-width="4"/><path d="M29.663 23.255h7.02l-1.17 11.232h-4.68l-1.17-11.233zm3.51 18.46c-1.005 0-1.829-.304-2.47-.91-.641-.607-.962-1.344-.962-2.21 0-.884.32-1.612.962-2.184.641-.59 1.465-.885 2.47-.885 1.005 0 1.829.295 2.47.884.641.573.962 1.3.962 2.184 0 .867-.32 1.604-.962 2.21-.641.607-1.465.91-2.47.91z" fill="#000"/></svg>