<svg xmlns="http://www.w3.org/2000/svg" width="38" height="40"><g fill="#FFF"><path d="M19 1c7.067 0 13.478 3.95 16.729 10.066l.162.313-2.348 1.193C30.79 7.152 25.185 3.634 19 3.634c-8.833 0-16.083 7.153-16.241 15.95l-.003.294H.122C.122 9.492 8.614 1 19 1zm18.878 18.878c0 10.386-8.492 18.878-18.878 18.878-7.067 0-13.478-3.95-16.729-10.066l-.162-.313 2.348-1.193c2.752 5.42 8.358 8.938 14.543 8.938 8.833 0 16.083-7.153 16.241-15.95l.003-.294h2.634z"/><path d="M35.08.222l2.611.351-1.756 13.059-13.06-1.756.351-2.61 10.449 1.404zM.309 39.183l1.756-13.059 13.06 1.756-.351 2.611-10.45-1.406L2.92 39.534z"/></g></svg>