<svg xmlns="http://www.w3.org/2000/svg" width="35" height="37"><g fill="#FFF"><path d="M28.244 25.081l1.628 1.628-4.698 4.698-3.162-3.163 1.628-1.628 1.534 1.535z"/><path d="M25.942 20.186a8.058 8.058 0 100 16.117 8.058 8.058 0 000-16.117zm0 2.302a5.756 5.756 0 110 11.512 5.756 5.756 0 010-11.512zm7.674-11.511v2.302H1.384v-2.302z"/><path d="M31.314 3.302a3.454 3.454 0 013.45 3.291l.003.163v13.44h-2.302V6.755a1.15 1.15 0 00-1.04-1.146l-.111-.005H3.686c-.598 0-1.09.456-1.146 1.04l-.005.11V29.78c0 .598.456 1.09 1.04 1.146l.111.005h12.663v2.303H3.686a3.454 3.454 0 01-3.45-3.291l-.003-.163V6.756a3.454 3.454 0 013.29-3.45l.163-.004h27.628z"/><path d="M10.209.233v8.441H7.907V.233zm16.884 0v8.441h-2.302V.233z"/></g></svg>