<svg width="70" height="61" fill="none" xmlns="http://www.w3.org/2000/svg"><path d="M34.948.76a18.756 18.756 0 0 0-18.697 18.76 18.757 18.757 0 0 0 18.697 18.773A18.763 18.763 0 0 0 53.67 19.52 18.76 18.76 0 0 0 34.948.76Zm-1.59 9.395h1.59c4.264-.065 8.527.11 12.771.525 1.174.116 1.809.398 1.95 1.693.218 2.334.243 4.72.243 7.143 0 2.45-.025 4.834-.243 7.168-.147 1.282-.756 1.564-1.95 1.692a123.16 123.16 0 0 1-12.77.526c-4.256.051-8.51-.124-12.747-.526-1.174-.116-1.808-.398-1.95-1.692-.218-2.334-.243-4.72-.243-7.168 0-2.424.025-4.822.244-7.143.146-1.283.756-1.565 1.95-1.693 3.706-.371 7.43-.546 11.155-.525Zm1.59 1.77a7.592 7.592 0 1 0 0 15.181 7.587 7.587 0 0 0 2.911-14.605 7.596 7.596 0 0 0-2.91-.571v-.005Zm-4.527 31.267a8.808 8.808 0 0 0-8.784 8.784 8.808 8.808 0 0 0 8.784 8.784 8.808 8.808 0 0 0 8.784-8.784 8.808 8.808 0 0 0-8.784-8.784Zm30.148 0a8.807 8.807 0 0 0-8.784 8.784 8.808 8.808 0 0 0 8.784 8.784 8.807 8.807 0 0 0 8.784-8.784 8.808 8.808 0 0 0-8.784-8.784Zm-51.562 0A8.65 8.65 0 0 0 .64 51.616a8.545 8.545 0 0 0 8.489 8.682h12.477v-3.745h-5.09l7.78-12.9h-5.002l-4.232 7.027H8.983v3.642h4.143a4.167 4.167 0 0 1-3.796 2 4.267 4.267 0 0 1-4.385-4.59 4.442 4.442 0 0 1 4.295-4.404 5.17 5.17 0 0 1 4.707 2.578l2.269-3.758a8.997 8.997 0 0 0-7.203-2.956h-.006Zm30.994.46v16.646h6.052a4.88 4.88 0 0 0 5.27-5.091 4.147 4.147 0 0 0-2.142-3.745 3.684 3.684 0 0 0 1.527-3.36c-.013-2.103-1.436-4.45-5.169-4.45h-5.538Zm4.257 3.643h1.192a1.366 1.366 0 0 1 1.372 1.359 1.367 1.367 0 0 1-1.384 1.449h-1.174v-2.81l-.006.002Zm-13.837.23a4.46 4.46 0 0 1 4.45 4.45 4.461 4.461 0 0 1-4.45 4.449 4.46 4.46 0 0 1-4.45-4.45 4.452 4.452 0 0 1 4.45-4.449Zm30.148 0a4.46 4.46 0 0 1 4.45 4.45 4.461 4.461 0 0 1-4.45 4.449 4.461 4.461 0 0 1-4.449-4.45 4.442 4.442 0 0 1 4.45-4.447v-.002Zm-16.311 5.77h1.346a1.655 1.655 0 0 1 1.706 1.668 1.668 1.668 0 0 1-1.615 1.654h-1.436v-3.321h-.001Z" fill="#fff"/></svg>