<svg width="61" height="28" fill="none" xmlns="http://www.w3.org/2000/svg"><g clip-path="url(#a)"><mask id="b" style="mask-type:alpha" maskUnits="userSpaceOnUse" x="0" y="0" width="61" height="26"><path d="M.559.63h60v25.187h-60V.63Z" fill="#fff"/></mask><g mask="url(#b)"><path fill-rule="evenodd" clip-rule="evenodd" d="M32.92 18.419c0 1.038-1.242 2.32-2.246 2.32h-.924V5.984c0-.163.13-.285.288-.285h2.604c.16 0 .289.132.289.295v12.425h-.01Zm-4.243 4.548c0 .662-.318 1.76-2.485 1.76-4.185 0-6.75-3.276-6.75-5.616 0 0-.01-7.591 0-13.127 0-.163.13-.285.289-.285h2.604c.16 0 .289.132.289.295v12.2c0 2.016 1.6 3.654 3.568 3.654h2.495l-.01 1.12v-.001ZM32.83 4.6H29.83c-.637 0-1.153.53-1.153 1.18v14.949h-2.495c-1.372 0-2.495-1.15-2.495-2.554V5.779c0-.65-.517-1.18-1.153-1.18h-3.001c-.636 0-1.153.53-1.153 1.18v13.32c0 4.163 4.552 6.717 7.822 6.717 2.186 0 3.548-1.1 3.548-2.86v-1.13h.924c1.61 0 3.32-1.75 3.32-3.408V5.778c-.01-.65-.527-1.18-1.163-1.18V4.6ZM15.11 20.474c0 .163-.13.285-.288.285h-2.604a.293.293 0 0 1-.29-.295V8.274c0-2.015-1.6-3.654-3.567-3.654H5.866V3.49c0-.66.319-1.76 2.485-1.76 4.185 0 6.749 3.277 6.749 5.617.01 0 .01 7.632.01 13.127Zm-13.19.285a.292.292 0 0 1-.288-.295V8.039c0-1.037 1.243-2.32 2.247-2.32h.924v14.755c0 .163-.13.296-.288.296H1.92v-.01l-.001-.001ZM16.174 7.347c0-4.161-4.552-6.716-7.822-6.716-2.186 0-3.548 1.1-3.548 2.86v1.13h-.925C2.269 4.62.559 6.37.559 8.029v12.64c0 .65.517 1.18 1.153 1.18h3.002c.02 0 .04 0 .05-.01a1.173 1.173 0 0 0 1.102-1.18V5.709H8.37c1.372 0 2.495 1.15 2.495 2.554v12.394c0 .652.517 1.18 1.153 1.18h3c.637 0 1.154-.53 1.154-1.18.01-5.494 0-13.31 0-13.31Zm43.205 13.392c-.02 0-.04-.01-.06-.03l-2.583-3.44h-.02v3.388a.07.07 0 0 1-.07.072h-.914c-.04 0-.07-.03-.07-.072v-9.748c0-.04.03-.071.07-.071h.914c.04 0 .07.03.07.07v6.219h.02l2.435-3.165c.01-.02.03-.03.06-.03h1.003c.06 0 .09.07.06.12l-2.555 3.105 2.803 3.45c.04.05.01.122-.06.122h-1.103v.01Zm-6.32 0c-.04 0-.07-.03-.07-.071v-4.61c0-1.017-.408-1.526-1.491-1.526-.438 0-.795.07-1.123.203-.03.01-.05.04-.05.07v5.864a.07.07 0 0 1-.043.066.07.07 0 0 1-.027.005h-.934c-.04 0-.07-.03-.07-.071v-6.32c0-.03.02-.06.04-.07a5.513 5.513 0 0 1 2.207-.46c1.789 0 2.574.795 2.574 2.23v4.61c0 .04-.03.07-.07.07h-.944v.01Zm-6.412-3.836c-1.69.203-2.683.68-2.683 1.872 0 .916.556 1.435 1.59 1.435.398 0 .795-.082 1.054-.204.03-.01.04-.04.04-.071v-3.032h-.001Zm-1.192 3.958c-1.59 0-2.525-.702-2.525-2.055 0-1.64 1.57-2.27 3.717-2.483v-.418c0-.936-.497-1.343-1.411-1.343-.547 0-1.143.163-1.59.397-.04.02-.08 0-.1-.04l-.208-.54c-.01-.04 0-.081.03-.092a4.564 4.564 0 0 1 1.958-.457c1.44 0 2.325.69 2.325 2.208v4.314c0 .03-.01.05-.04.07-.516.256-1.292.439-2.156.439Zm-6.262-6.35c-.378 0-.716.092-1.014.234-.03.01-.04.04-.04.072v5.118c0 .03.02.06.04.07.249.103.577.154.895.154 1.36 0 1.908-1.18 1.908-2.89 0-1.7-.646-2.758-1.79-2.758Zm-.16 6.35c-.764 0-1.49-.204-1.927-.458-.02-.01-.04-.04-.04-.061v-9.423c0-.04.03-.07.07-.07h.924c.04 0 .07.03.07.07v3.226c.377-.204.835-.305 1.33-.305 1.552 0 2.596 1.312 2.596 3.368.01 2.188-1.044 3.653-3.022 3.653Z" fill="#fff"/></g></g><defs><clipPath id="a"><path fill="#fff" transform="translate(.559 .369)" d="M0 0h60v27H0z"/></clipPath></defs></svg>