<svg width="186" height="61" fill="none" xmlns="http://www.w3.org/2000/svg"><path d="M54.076 49.952V23.254a.237.237 0 0 1 .243-.246h5.127a.246.246 0 0 1 .245.246v9.621h.078a6.983 6.983 0 0 1 5.664-2.489c4.036 0 5.332 2.639 5.332 6.139v13.427a.244.244 0 0 1-.245.246h-5.126a.246.246 0 0 1-.246-.246v-12.93c0-1.517-1.578-1.982-2.59-1.982-1.012 0-2.867.662-2.867 2.558v12.354a.245.245 0 0 1-.246.246h-5.123a.246.246 0 0 1-.246-.246Zm40.929-5.269v-9.2h-2.37a.246.246 0 0 1-.244-.246v-3.302a.245.245 0 0 1 .166-.23l3.159-.923 1.683-5.268a.247.247 0 0 1 .174-.136h2.764a.234.234 0 0 1 .246.247v5.197h4.146a.244.244 0 0 1 .245.244v4.219a.23.23 0 0 1-.073.17.235.235 0 0 1-.173.066h-4.145V44.1c0 .892.506 1.437 1.746 1.437h2.37a.247.247 0 0 1 .246.246v3.703a.257.257 0 0 1-.159.23 9.472 9.472 0 0 1-3.949.868c-4.132 0-5.83-2.449-5.83-5.9l-.002-.001Zm80.278 0v-9.2h-2.37a.245.245 0 0 1-.245-.246v-3.302c.001-.05.017-.1.046-.141a.25.25 0 0 1 .12-.088l3.16-.923 1.682-5.27a.243.243 0 0 1 .229-.165h2.764a.233.233 0 0 1 .176.07.222.222 0 0 1 .069.175v5.196h4.148c.065 0 .128.026.174.072a.25.25 0 0 1 .07.173v4.218a.244.244 0 0 1-.018.093.246.246 0 0 1-.134.129.23.23 0 0 1-.092.015h-4.148v8.61c0 .893.506 1.438 1.746 1.438h2.369a.247.247 0 0 1 .247.246v3.703a.258.258 0 0 1-.159.23 9.482 9.482 0 0 1-3.949.868c-4.186 0-5.885-2.449-5.885-5.9v-.001Zm-66.903 5.27V30.994c0-.032.006-.064.018-.094a.248.248 0 0 1 .227-.152h4.628a.246.246 0 0 1 .23.166l.537 1.928h.077a6.921 6.921 0 0 1 5.634-2.488c2.755 0 4.083 1.24 4.826 3.16h.157a6.813 6.813 0 0 1 6.091-3.16c4.037 0 5.332 2.639 5.332 6.139v13.428a.234.234 0 0 1-.019.093.236.236 0 0 1-.133.133.246.246 0 0 1-.094.018h-5.142a.248.248 0 0 1-.246-.246V37.11c0-1.518-1.427-2.102-2.44-2.102-1.169 0-2.906.743-2.984 2.449v12.495a.237.237 0 0 1-.246.245h-5.157a.245.245 0 0 1-.237-.245V37.11c0-1.517-1.517-2.101-2.623-2.101a2.787 2.787 0 0 0-2.805 2.686v12.258a.247.247 0 0 1-.237.246h-5.141a.25.25 0 0 1-.179-.069.243.243 0 0 1-.074-.177Zm31.146-14.905v-3.524a.256.256 0 0 1 .058-.152.256.256 0 0 1 .139-.084 39.645 39.645 0 0 1 7.505-.893c4.969 0 7.898 1.2 7.898 6.563V49.96a.234.234 0 0 1-.07.174.245.245 0 0 1-.174.072h-4.905a.238.238 0 0 1-.231-.183l-.527-1.919h.221c-1.4 1.944-3.255 2.488-5.529 2.488-3.649 0-5.594-2.835-5.594-6.177 0-5.046 3.689-6.058 6.446-6.058h4.739v-1.28c0-1.58-1.185-1.935-5.686-1.935-1.903 0-3.95.15-4.037.15a.255.255 0 0 1-.177-.072.255.255 0 0 1-.076-.174v.002Zm9.97 6.761h-3.082c-1.635 0-2.692.623-2.692 2.37 0 1.88 1.349 2.307 2.646 2.307a3.001 3.001 0 0 0 3.158-3.161v-1.579l-.03.062v.001Zm8.9 8.143V30.995a.242.242 0 0 1 .237-.246h4.581a.237.237 0 0 1 .237.197l.545 2.948h.078a6.626 6.626 0 0 1 5.995-3.531.247.247 0 0 1 .247.246v5.276a.247.247 0 0 1-.247.246h-1.31c-3.531 0-4.74 1.412-4.74 3.158v10.63a.245.245 0 0 1-.145.227.244.244 0 0 1-.092.02h-5.126a.244.244 0 0 1-.26-.214ZM73.148 40.49c0-6.177 2.41-10.095 9.243-10.095 6.83 0 9.281 3.95 9.281 10.095 0 6.146-2.409 10.096-9.281 10.096-6.872 0-9.243-3.879-9.243-10.096Zm6.068 0c0 3.342.489 5.388 3.158 5.388 2.67 0 3.216-2.046 3.216-5.388 0-3.341-.498-5.354-3.216-5.354-2.717 0-3.158 2.013-3.158 5.354Zm-35.688-1.926c.27-5.285-1.58-13.926-5.97-20.997-.12-.181-.318-.11-.278.08.292 1.074.363 3.025-1.343 2.908-3.034-.206.103-6.7-6.557-11.202a.141.141 0 0 0-.22.174c.457.868.726 3.577-.323 4.502-.846.743-2.37.544-3.895-1.896a10.546 10.546 0 0 1 .15-11.123c.127-.204-.047-.283-.19-.235-9.163 3.024-10.996 13.83-12.946 17.764-.323.663-.608 1.003-1.17.971-1.666-.11-.466-3.672.111-4.912a.141.141 0 0 0-.23-.159A38.918 38.918 0 0 0 .866 35.57c0-.183-.077.646-.126 1.255 0 .238-.016.477-.046.719v.861a21.443 21.443 0 1 0 42.883.354.38.38 0 0 1-.047-.197l-.001.002Zm-21.517 9.96a9.945 9.945 0 1 1 .11-19.89 9.945 9.945 0 0 1-.11 19.89Z" fill="#fff"/></svg>