<svg width="26" height="26" fill="none" xmlns="http://www.w3.org/2000/svg"><g clip-path="url(#clip0)"><path d="M25.599 2.583c-.318-.389-.794-.603-1.34-.603-.297 0-.612.063-.935.187l-22.008 8.4C.148 11.015-.01 11.683 0 12.042c.01.36.206 1.018 1.397 1.398a.866.866 0 0 0 .021.006l4.565 1.306 2.47 7.06c.336.963 1.091 1.56 1.971 1.56.555 0 1.101-.232 1.579-.672l2.823-2.6 4.096 3.298.001.001.04.032.01.008c.455.353.952.54 1.438.54.948 0 1.703-.702 1.923-1.788l3.607-17.806c.144-.715.023-1.355-.342-1.801zM7.51 14.503l8.807-4.5-5.484 5.828a.76.76 0 0 0-.185.34l-1.057 4.283-2.081-5.95zm3.46 7.076a1.453 1.453 0 0 1-.11.09l.98-3.973 1.785 1.437-2.655 2.446zM24.447 4.08l-3.606 17.806c-.034.17-.145.567-.43.567-.141 0-.318-.076-.5-.216l-4.64-3.737-.002-.001-2.762-2.224 7.931-8.427a.762.762 0 0 0-.901-1.2L6.493 13.312 1.866 11.99l22.001-8.4c.186-.07.316-.085.392-.085.047 0 .13.005.16.043.04.05.092.218.028.534z" fill="#fff"/></g><defs><clipPath id="clip0"><path fill="#fff" d="M0 0H26V26H0z"/></clipPath></defs></svg>