<svg width="267" height="36" fill="none" xmlns="http://www.w3.org/2000/svg"><g clip-path="url(#clip0)"><path d="M17.47 5.793V.571H0v34.51h17.471V29.86H5.287V5.793h12.184zm5.288 24.067v5.221h17.47V.572h-17.47v5.222H34.94V29.86H22.758z" fill="#F7F7F8"/><path d="M29.654 11.015h-6.896v5.222h6.896v-5.222z" fill="#48D359"/><path d="M10.574 11.015v5.165h6.897v13.68h5.287V11.015H10.574zm60.745.17h8.965c2.93 0 4.942.738 6.206 2.044 1.092 1.078 1.725 2.497 1.725 4.37v.057c0 2.895-1.495 4.711-3.908 5.733l4.482 6.527h-6.034l-3.85-5.676h-2.299v5.676h-5.23l-.057-18.73zm8.735 8.969c1.781 0 2.816-.852 2.816-2.214v-.057c0-1.476-1.092-2.213-2.874-2.213h-3.448v4.484h3.506zm13.678-8.969h15.229v4.428h-10v2.838h9.08v4.087h-9.08v2.951h10.115v4.427H93.732v-18.73zm21.091 0h5.287v18.731h-5.287v-18.73zm11.666 0h4.942l7.758 9.877v-9.877h5.23v18.731h-4.597l-8.046-10.273v10.273h-5.23v-18.73h-.057zm30.746-.113h5.057l8.045 18.844h-5.631l-1.38-3.349h-7.298l-1.322 3.35h-5.517l8.046-18.845zm4.597 11.465l-2.126-5.335-2.127 5.335h4.253zm42.699-11.351h15.23v4.427h-10v2.838h9.08v4.087h-9.08v2.951h10.172v4.427h-15.344v-18.73h-.058zm21.034 0h9.712c2.356 0 4.081.624 5.172 1.702.748.795 1.207 1.76 1.207 3.009 0 2.156-1.207 3.462-2.931 4.2 2.299.738 3.736 2.043 3.736 4.54v.058c0 3.178-2.644 5.165-7.184 5.165h-9.769l.057-18.675zm8.448 7.492c1.552 0 2.471-.568 2.471-1.646v-.057c0-1.022-.804-1.646-2.356-1.646h-3.391v3.292h3.276v.057zm.747 7.095c1.552 0 2.529-.624 2.529-1.76v-.056c0-1.022-.805-1.703-2.529-1.703h-4.023v3.462h4.023v.057z" fill="#F7F7F8"/><path d="M267.057 24.013h-19.194v5.222h19.194v-5.222z" fill="#48D359"/><path d="M67.353 11.185H48.216v5.222h6.897V29.86H60.4V16.407h6.953v-5.222zm126.834 0l-3.333 10.841-3.678-10.898h-4.54l-3.563 10.558-2.356-7.152-1.035-3.349h-5.459l6.264 18.901h4.597l.345-1.305h.057v-.057l3.334-9.422 3.85 10.784h4.598l6.321-18.9h-5.402z" fill="#F7F7F8"/></g><defs><clipPath id="clip0"><path fill="#fff" transform="translate(0 .571)" d="M0 0h267v34.51H0z"/></clipPath></defs></svg>