<svg xmlns="http://www.w3.org/2000/svg" width="199" height="50"><g fill="none" fill-rule="evenodd"><path fill="#4A4A4A" fill-rule="nonzero" d="M27.254 0h4.666c.262 0 .436.22.436.44v47.076c0 .264-.218.44-.436.44h-4.666a.44.44 0 01-.436-.44V.484c0-.264.175-.484.436-.484zm32.052 38.77v1.186c0 .528-.088 1.23-.306 2.154-.174.879-.61 1.758-1.395 2.637-.741.88-1.832 1.627-3.358 2.286-1.526.615-3.532.967-6.148.967-2.617 0-4.666-.308-6.149-.967-1.483-.66-2.573-1.407-3.358-2.286-.741-.879-1.22-1.758-1.395-2.681-.175-.923-.305-1.582-.305-2.11V13.143c0-.264.218-.44.436-.44h4.666a.44.44 0 01.436.44v25.099c0 .835.13 1.45.261 1.89.131.44.35.967.698 1.363.349.44.916.79 1.614 1.054.697.308 1.657.44 2.878.44 1.264 0 2.267-.176 3.009-.44.74-.307 1.308-.615 1.657-1.01.392-.396.654-.836.784-1.32.131-.483.306-.878.306-2.021V13.143c0-.264.218-.44.436-.44h4.666a.44.44 0 01.436.44l.13 25.626zm15.873-26.067h3.14c.305 0 .48.308.392.528l-1.047 4.088c-.043.22-.261.307-.392.307h-2.18c-1.178 0-2.137.176-2.835.484s-1.308.66-1.657 1.099c-.393.44-.61.879-.741 1.318a5.001 5.001 0 00-.175 1.32v25.626a.44.44 0 01-.436.44h-4.71a.44.44 0 01-.436-.44V20.747c0-.483.088-1.187.306-2.11.174-.923.61-1.758 1.395-2.681.741-.88 1.832-1.626 3.358-2.286 1.352-.615 3.445-.967 6.018-.967zm-64.103 0c3.794 0 6.585.748 8.416 2.242 1.745 1.539 2.66 3.429 2.66 5.67v19.297c0 .791-.174 1.626-.436 2.593-.305.968-.828 1.803-1.613 2.594-.829.791-1.962 1.45-3.401 1.978-1.44.527-3.315.791-5.582.791-2.311 0-4.143-.308-5.582-.791-1.439-.484-2.573-1.187-3.401-1.978-.829-.791-1.396-1.626-1.614-2.594-.305-.967-.436-1.802-.436-2.593v-3.077c0-1.626.436-3.165 1.265-4.527.872-1.363 2.05-2.33 3.576-2.857.785-.308 1.613-.528 2.66-.924.959-.351 1.962-.659 2.878-1.01.96-.308 1.7-.616 2.442-.88.697-.307 1.133-.395 1.308-.483.174-.088.392-.22.654-.352.305-.176.523-.395.829-.66.305-.307.48-.658.654-1.01.218-.396.305-.88.305-1.407v-1.23c0-.44-.087-.88-.305-1.363-.175-.484-.48-.88-.916-1.275-.436-.395-1.003-.703-1.7-.967-.698-.264-1.57-.352-2.704-.352-2.18 0-3.576.44-4.405 1.363-.654.791-1.046 1.714-1.134 2.857 0 .264-.218.396-.436.396H.436a.439.439 0 01-.436-.44v-1.143c0-1.098.218-2.153.61-3.076.393-.924 1.047-1.803 2.006-2.55a9.365 9.365 0 013.445-1.67c1.396-.308 3.053-.572 5.015-.572zm5.582 17.363c-.087.44-.305.747-.654.967-.349.264-.654.352-.96.483-.654.264-1.395.484-2.136.748-.742.307-1.483.527-2.137.747-.785.308-1.57.527-2.18.791-.524.264-1.003.528-1.527.923a4.873 4.873 0 00-1.046 1.363c-.305.571-.48 1.23-.48 2.066 0 1.626.393 2.857 1.177 3.692.785.791 2.224 1.23 4.361 1.23 2.18 0 3.62-.439 4.448-1.274.785-.879 1.178-2.066 1.178-3.604l-.044-8.132zm75.266-17.363c3.794 0 6.584.748 8.416 2.242 1.744 1.539 2.66 3.429 2.66 5.67v19.297c0 .791-.174 1.626-.436 2.593-.305.968-.829 1.803-1.614 2.594-.828.791-1.962 1.45-3.4 1.978-1.44.527-3.315.791-5.583.791-2.31 0-4.142-.308-5.581-.791-1.44-.484-2.573-1.187-3.402-1.978-.828-.791-1.395-1.626-1.613-2.594-.305-.967-.436-1.802-.436-2.593v-3.077c0-1.626.436-3.165 1.264-4.527.873-1.363 2.05-2.33 3.576-2.857.785-.308 1.614-.528 2.66-.924.96-.351 1.963-.659 2.878-1.01.96-.308 1.701-.616 2.442-.88.698-.307 1.134-.395 1.309-.483.174-.088.392-.22.654-.352.305-.176.523-.395.828-.66.305-.307.48-.658.654-1.01.218-.396.306-.88.306-1.407v-1.23c0-.44-.088-.88-.306-1.363-.174-.484-.48-.88-.915-1.275-.437-.395-1.003-.703-1.701-.967-.698-.264-1.57-.352-2.704-.352-2.18 0-3.576.44-4.404 1.363-.654.791-1.047 1.714-1.134 2.857 0 .264-.218.396-.436.396h-4.753a.439.439 0 01-.436-.44v-1.143c0-1.098.218-2.153.61-3.076.393-.968 1.047-1.803 2.006-2.55a9.365 9.365 0 013.445-1.67c1.526-.308 3.183-.572 5.146-.572zm5.538 17.363c-.087.44-.305.747-.654.967-.35.264-.654.352-.96.483-.654.264-1.395.484-2.136.748-.742.307-1.483.527-2.137.747-.785.308-1.57.527-2.18.791-.524.264-1.003.528-1.527.923a4.873 4.873 0 00-1.046 1.363c-.305.527-.48 1.23-.48 2.066 0 1.626.393 2.857 1.177 3.692.785.791 2.224 1.23 4.361 1.23 2.18 0 3.62-.439 4.448-1.274.785-.879 1.178-2.066 1.178-3.604l-.044-8.132z"/><path fill="#167BF7" fill-rule="nonzero" d="M136.953 28v-3.74h1.04c1.262 0 2.235-.277 2.918-.833.684-.556 1.026-1.356 1.026-2.4 0-.993-.312-1.745-.934-2.256-.622-.51-1.557-.765-2.806-.765h-2.878V28h1.634zm.868-5.113h-.868v-3.514h1.135c.743 0 1.29.141 1.64.424.351.282.527.71.527 1.285 0 .62-.196 1.076-.588 1.367-.392.292-1.007.438-1.846.438zm7.773 5.25c.579 0 1.052-.083 1.422-.25.369-.166.736-.48 1.1-.94h.055l.321 1.053h1.149v-5.093c0-.898-.245-1.556-.735-1.975-.49-.42-1.216-.63-2.177-.63-.433 0-.894.057-1.381.168a5.609 5.609 0 00-1.347.489l.52 1.148c.328-.155.67-.289 1.025-.403.355-.114.727-.17 1.114-.17.474 0 .824.119 1.05.358.225.24.338.6.338 1.084v.403l-1.306.04c-1.185.037-2.067.254-2.645.65-.58.397-.868.985-.868 1.764 0 .734.208 1.301.625 1.702.417.401.997.602 1.74.602zm.506-1.23c-.401 0-.702-.093-.903-.278-.2-.184-.3-.445-.3-.782 0-.465.172-.81.516-1.036.344-.226.894-.352 1.65-.38l.971-.04v.656c0 .588-.176 1.045-.53 1.37-.353.326-.821.49-1.404.49zM153.49 28v-3.951c0-.67.199-1.215.597-1.634.4-.42.92-.629 1.562-.629.247 0 .483.027.711.082l.158-1.497a3.919 3.919 0 00-.8-.068c-.465 0-.9.132-1.302.396-.404.265-.73.622-.981 1.073h-.082l-.212-1.333h-1.258V28h1.606zm5.98.137c.58 0 1.053-.083 1.423-.25.369-.166.736-.48 1.1-.94h.055l.321 1.053h1.149v-5.093c0-.898-.245-1.556-.735-1.975-.49-.42-1.216-.63-2.178-.63-.432 0-.893.057-1.38.168a5.609 5.609 0 00-1.347.489l.52 1.148c.328-.155.67-.289 1.025-.403.355-.114.727-.17 1.114-.17.474 0 .824.119 1.05.358.225.24.338.6.338 1.084v.403l-1.306.04c-1.185.037-2.067.254-2.645.65-.58.397-.869.985-.869 1.764 0 .734.209 1.301.626 1.702.417.401.997.602 1.74.602zm.507-1.23c-.401 0-.702-.093-.903-.278-.2-.184-.3-.445-.3-.782 0-.465.171-.81.516-1.036.344-.226.894-.352 1.65-.38l.971-.04v.656c0 .588-.176 1.045-.53 1.37-.353.326-.821.49-1.404.49zM140.973 43v-1.388h-4.02v-3.137h3.767v-1.368h-3.767v-2.72h4.02v-1.381h-5.654V43h5.654zm3.595 0v-3.767c0-.938.145-1.61.434-2.013.29-.403.744-.605 1.364-.605.465 0 .807.143 1.026.427.218.285.328.717.328 1.296V43h1.613v-4.006c0-.806.145-1.405.434-1.794.29-.39.746-.585 1.37-.585.466 0 .808.143 1.03.427.22.285.331.717.331 1.296V43h1.606v-4.929c0-.934-.206-1.629-.618-2.085-.413-.455-1.07-.683-1.972-.683-.524 0-.99.105-1.395.314-.405.21-.72.501-.943.875h-.11c-.378-.793-1.148-1.19-2.31-1.19-.479 0-.917.099-1.316.295a2.097 2.097 0 00-.913.834h-.082l-.225-.992h-1.258V43h1.606zm13.385 3.363v-3.096c0-.137-.032-.524-.096-1.163h.096c.529.689 1.272 1.033 2.229 1.033.943 0 1.682-.347 2.218-1.04.535-.692.803-1.656.803-2.89 0-1.236-.263-2.195-.79-2.879-.526-.683-1.26-1.025-2.204-1.025-1.003 0-1.755.383-2.256 1.148h-.082c-.114-.533-.189-.87-.225-1.012h-1.3v10.924h1.607zm1.866-4.539c-.66 0-1.137-.206-1.428-.618-.292-.413-.438-1.08-.438-2v-.24c0-.82.147-1.417.441-1.79.294-.374.76-.56 1.398-.56.579 0 1.017.217 1.316.652.298.435.448 1.077.448 1.924 0 .843-.15 1.493-.452 1.949-.3.455-.729.683-1.285.683zM166.676 43v-3.951c0-.67.2-1.215.598-1.634.399-.42.92-.629 1.562-.629.246 0 .483.027.71.082l.158-1.497a3.912 3.912 0 00-.8-.068c-.465 0-.899.132-1.302.396-.403.265-.73.622-.98 1.073h-.083l-.212-1.333h-1.258V43h1.607zm7.451.137c.515 0 .973-.039 1.374-.116.401-.078.798-.21 1.19-.397v-1.306a6.538 6.538 0 01-1.241.42 5.786 5.786 0 01-1.248.127c-.679 0-1.205-.197-1.579-.591-.374-.394-.572-.958-.595-1.692h5.038v-.868c0-1.062-.289-1.896-.868-2.502-.579-.606-1.367-.91-2.365-.91-1.076 0-1.92.354-2.536 1.06-.615.707-.923 1.677-.923 2.912 0 1.204.332 2.148.995 2.834.663.686 1.582 1.029 2.758 1.029zm1.36-4.717h-3.431c.059-.62.242-1.092.55-1.415.308-.324.717-.485 1.227-.485.51 0 .911.16 1.203.481.292.322.442.795.451 1.419zm5.367 4.717c1.002 0 1.772-.197 2.31-.592.538-.394.807-.96.807-1.698 0-.365-.069-.678-.205-.94a1.98 1.98 0 00-.63-.694c-.282-.2-.735-.422-1.36-.663-.742-.287-1.224-.513-1.445-.677-.221-.164-.332-.365-.332-.602 0-.483.424-.724 1.272-.724.555 0 1.241.168 2.057.506l.52-1.21a6.033 6.033 0 00-2.523-.54c-.898 0-1.607.179-2.13.536-.521.358-.782.86-.782 1.508 0 .537.154.975.462 1.312.307.337.896.675 1.767 1.012.446.173.795.328 1.046.465.25.136.43.269.54.396a.712.712 0 01.164.479c0 .597-.495.895-1.484.895-.765 0-1.593-.205-2.481-.615v1.388c.61.305 1.42.458 2.427.458zm6.685 0c.579 0 1.053-.083 1.422-.25.37-.166.736-.48 1.1-.94h.055l.321 1.053h1.149v-5.093c0-.898-.245-1.556-.735-1.975-.49-.42-1.216-.63-2.177-.63-.433 0-.893.057-1.381.168a5.609 5.609 0 00-1.347.489l.52 1.148c.328-.155.67-.289 1.025-.403.356-.114.727-.17 1.114-.17.474 0 .824.119 1.05.358.225.24.338.6.338 1.084v.403l-1.305.04c-1.185.037-2.067.254-2.646.65-.579.397-.868.985-.868 1.764 0 .734.208 1.301.625 1.702.417.401.997.602 1.74.602zm.506-1.23c-.401 0-.702-.093-.902-.278-.2-.184-.301-.445-.301-.782 0-.465.172-.81.516-1.036.344-.226.894-.352 1.65-.38l.971-.04v.656c0 .588-.176 1.045-.53 1.37-.352.326-.82.49-1.404.49zm7.745 1.23c1.003 0 1.773-.197 2.31-.592.538-.394.807-.96.807-1.698 0-.365-.068-.678-.205-.94a1.977 1.977 0 00-.629-.694c-.282-.2-.736-.422-1.36-.663-.743-.287-1.225-.513-1.446-.677-.22-.164-.331-.365-.331-.602 0-.483.423-.724 1.271-.724.556 0 1.242.168 2.058.506l.52-1.21a6.04 6.04 0 00-2.523-.54c-.898 0-1.608.179-2.13.536-.521.358-.782.86-.782 1.508 0 .537.153.975.461 1.312.308.337.897.675 1.767 1.012.447.173.795.328 1.046.465.25.136.43.269.54.396.11.128.164.287.164.479 0 .597-.494.895-1.483.895-.766 0-1.593-.205-2.482-.615v1.388c.611.305 1.42.458 2.427.458z"/><path fill="#167BF7" d="M118 11h1.5v39H118z"/></g></svg>