<svg xmlns="http://www.w3.org/2000/svg" width="47" height="45"><g transform="translate(1 2)" stroke="#093366" stroke-width="3" fill="none" fill-rule="evenodd"><path stroke-linecap="square" d="M.5 33.5c0 4.4 3.6 8 8 8 3 0 5.6-1.7 7-4.2 1.4 2.5 4 4.2 7 4.2s5.6-1.7 7-4.2c1.4 2.5 4 4.2 7 4.2 4.4 0 8-3.6 8-8m-36-19h-5m4.8-5.2L6.5 7.5m1.8 12.2l-1.8 1.8m30-7h5m-4.8-5.2l1.8-1.8m-2 12.2l1.8 1.8"/><path d="M13.5 6.5h18"/><path stroke-linecap="square" d="M36.5 31.5l-5-9h-18l-5 9"/><circle cx="22.5" cy="14.5" r="3" stroke-linecap="square"/><path stroke-linecap="square" d="M31.5 22.5v-16l-9-6-9 6v16"/></g></svg>