<svg xmlns="http://www.w3.org/2000/svg" width="42" height="41"><g fill="#FFF"><path d="M17.714 31.714V34.5H.071v-2.786zm4.643-6.5V28H4.714v-2.786zm2.786 13V41H7.5v-2.786z"/><path d="M21.03.198l-.78 2.496a15.045 15.045 0 00-.679 4.413c0 8.424 6.898 15.322 15.322 15.322 1.33 0 2.703-.195 3.988-.554l.425-.126 2.48-.775-.727 2.495c-1.355 4.642-4.589 8.521-8.905 10.796l-.353.18-1.245.624-1.246-2.492 1.246-.623c3.023-1.512 5.443-3.934 6.898-6.878l.029-.061-.174.027c-.642.09-1.29.147-1.934.165l-.482.007c-9.962 0-18.107-8.145-18.107-18.107 0-.802.059-1.613.172-2.416l.025-.166-.04.02a15.308 15.308 0 00-8.51 13.377l-.004.328v1.393H5.643V18.25c0-7.907 5.154-14.848 12.549-17.204l.333-.103 2.506-.745z"/></g></svg>