<svg version="1.1" id="Camada_1" xmlns="http://www.w3.org/2000/svg" x="0" y="0" viewBox="0 0 128.7 38.7" xml:space="preserve"><style>.st0{fill:#c3d3eb}</style><path class="st0" d="M7.7 8.4c-.7-.8-.6-1.9.6-2-.3-.9-.2-1.3.5-1.9C9.5 4 10.3 3.4 11 3c.8-.5 1.3-.4 1.9.2.6.6 1.2 1.2 1.9 1.8.1.1.2.2.4.1 4.3-1.2 8.6-1.4 13-.9 1.6.2 3.2.5 4.8.8.2 0 .3 0 .5-.1.6-.6 1.3-1.2 1.9-1.9.4-.4.8-.5 1.3-.3.2.1.5.2.7.3.6.4 1.1.8 1.7 1.1.2.1.3.2.4.4.6.6.7 1 .4 1.8 1.1.3 1.4 1 .8 1.9.3.2.7.4 1 .7 2 1.5 3.8 3.2 4.9 5.4.7 1.3 1.1 2.8 1.2 4.2.3 4.6-1.2 8.6-4.7 11.7-2.7 2.4-5.8 3.9-9.2 4.8-2.2.6-4.5 1-6.7 1.1-3.8.3-7.6 0-11.4-.9-2.9-.7-5.6-1.8-8.1-3.4-2.7-1.8-4.8-4-6-7.1C.6 21.9.4 19 1.2 16.1c.6-2.2 1.9-4 3.5-5.5.9-.8 1.8-1.5 2.8-2.2.1.1.1 0 .2 0zM36.5 7c.3.1.6.2.9.2.2 0 .4 0 .5-.1.4-.3.8-.7 1.1-1.1.3-.4.3-.5-.1-.9-.8-.6-1.5-1.1-2.3-1.6-.4-.2-.5-.2-.8.1-.8.8-1.6 1.6-2.4 2.3-1.5 1.4-2.7 3-3.5 4.9-1.1 2.5-2.2 5-3.3 7.6-.5 1-.9 2.1-1.4 3.2-.3.8-.6 1.6-.6 2.5 0 .9.4 1.5 1.2 1.7.5.1 1.1.2 1.6.3 2.6.2 5.2.5 7.8.3 2.2-.1 4.3-.4 6.4-.8.3-.1.7-.1 1-.1.6 0 1 .3 1.2.8l.1-.1c.9-1.1 1.7-2.3 2.2-3.6.4-1 .5-2.1.6-3.2 0-.2-.1-.2-.2-.2-1.8-.3-3.5-.2-5.3.1-3 .4-5.9 1.2-8.7 2.4-.5.2-1.1.5-1.7.7v-.1c.6-1.3.7-2.6.7-4v-2.9c0-1.5.3-2.9.8-4.2.2-.4.3-.9.5-1.3s.6-.6 1-.5c.8.2 1.5 0 2.1-.3.9-.5 1.9-.7 3-.9.3 0 .5-.1.8-.3.1-.1.1-.3.1-.4 0 0-.2-.1-.3-.1-.5.1-1.1.2-1.5.4-.4.2-.7.3-1.1.1-.1 0-.1-.1-.2-.1-.4-.2-.7-.1-1 .2-.2.2-.4.5-.7.6-.3.2-.6.2-.9 0 .1-.1.2-.2.3-.2.5-.5 1-1 1.5-1.6.2-.3.3-.6.1-.9-.1-.1-.1-.3-.2-.4l.1-.1c.3.2.5.4.8.7.2-.3.3-.6.5-.9 0 .2.1.4.1.6 0 .3.2.3.4.3-.1.1-.2.3-.3.4-.5-.3-.7-.2-.9.5zM4.4 26.1c.4-.5.8-.6 1.4-.6.3 0 .5.1.8.1 2.4.5 4.9.9 7.4.8 2.1 0 4.2-.2 6.3-.3.7 0 1.3-.1 2-.3.8-.2 1.3-.8 1.3-1.7 0-.8-.2-1.5-.5-2.2-.5-1.2-1-2.3-1.5-3.5-1-2.2-1.9-4.5-2.9-6.7-.6-1.4-1.3-2.8-2.3-4-1.3-1.4-2.7-2.8-4-4.1-.2-.2-.4-.2-.7-.1-.1.1-.3.1-.4.2-.5.3-1 .7-1.5 1l-.7.7c-.2.2-.2.4-.1.5.3.3.5.6.8.9.6.5 1.2.6 1.9.2-.1-.7-.3-.7-.9-.4-.1-.2-.3-.3-.4-.4.3.1.4-.1.4-.4v-.5c.2.3.3.6.5.8.3-.3.6-.4.8-.6l.1.1c0 .1-.1.1-.1.2-.3.5-.3.7.1 1.2s.9.9 1.3 1.3c.1.1.3.2.5.4-.4.2-.7.1-.9 0-.2-.2-.5-.4-.7-.6-.4-.4-.5-.5-1.1-.3-.5.2-.9.2-1.4-.1-.5-.3-1-.4-1.5-.5-.1 0-.3.1-.3.1 0 .1 0 .3.1.4.1.1.2.1.3.2.2.1.4.1.6.1.9.1 1.8.4 2.7.8.7.4 1.5.6 2.3.4.4-.1.7.1.9.5.2.3.3.7.4 1 .6 1.5 1 3 .9 4.6 0 1-.1 2 0 3 0 1.3.1 2.7.7 3.9v.2c-.1 0-.1 0-.2-.1-2.9-1.4-5.9-2.3-9-2.8C6 19.1 4 19 2 19.3c-.2 0-.3.1-.3.3 0 1.4.4 2.7 1 3.9.4 1 1 1.8 1.7 2.6zm19.7-.7c-.1.2-.3.4-.4.6-.5.6-1.3.9-2 .9-1.9.2-3.8.3-5.7.4-1.5.1-3 0-4.6-.1-1.8-.2-3.6-.4-5.4-.8-.2-.1-.5 0-.7 0-.3.1-.3.3-.1.5.8.7 1.6 1.5 2.5 2.1 1.9 1.4 4.1 2.3 6.3 3.1 2.9.9 5.8 1.4 8.8 1.5 3.1.1 6.2-.1 9.3-.9 2.7-.6 5.3-1.6 7.7-3 1.2-.7 2.4-1.6 3.4-2.6.1-.1.2-.2.1-.4-.2-.4-.5-.5-1-.4-2.5.6-5.1.9-7.6 1-2.7.1-5.3-.2-8-.4-1.1-.1-2.1-.5-2.6-1.5zM15.7 5.9c.2.1.2.2.3.3 1.1 1.1 2.1 2.4 2.7 3.9 1.6 3.5 3.1 6.9 4.6 10.4.3.6.5 1.3.7 1.9.4-1.1.8-2.1 1.3-3.2 1.1-2.6 2.3-5.2 3.4-7.8.7-1.6 1.5-3.1 2.7-4.4.3-.4.7-.7 1-1.1-5.5-1.4-11-1.4-16.7 0zm31.1 12.4v-.1c-.2-1.5-.6-2.8-1.4-4.1-1.4-2.3-3.3-4-5.6-5.3-.1 0-.2-.1-.2 0-1 .2-2 .4-3 .8-.8.3-1.6.7-2.6.4-.1 0-.2.1-.2.2-.1.2-.2.5-.3.7-.6 1.6-1 3.1-.9 4.8.1 1.2 0 2.5-.1 3.7 0 .4-.1.9-.2 1.3h.1c1.9-.8 3.9-1.4 6-1.8 1.9-.4 3.9-.7 5.8-.7.9 0 1.8.1 2.6.1zm-31 2.5v-.1c-.3-1.7-.3-3.4-.2-5.1.1-1.9-.5-3.7-1.2-5.4-.1-.1-.1-.2-.3-.2-.6.2-1.2.1-1.8-.1-.8-.3-1.6-.6-2.5-.9-.4-.1-.9-.3-1.3-.1-1.7 1-3.2 2.3-4.4 3.8-1.2 1.5-2 3.3-2.3 5.2v.4c4.9-.5 9.5.7 14 2.5z"/><path d="M36.5 7c.2-.7.3-.8.9-.5.1-.1.2-.3.3-.4-.2 0-.4 0-.4-.3 0-.2 0-.4-.1-.6-.2.3-.3.6-.5.9-.3-.3-.6-.5-.8-.7l-.1.1c.1.1.1.3.2.4.2.3.2.6-.1.9-.5.5-1 1.1-1.5 1.6-.1.1-.2.2-.3.2.3.2.6.2.9 0 .2-.2.5-.4.7-.6.3-.3.6-.4 1-.2.1 0 .2 0 .2.1.4.2.7.1 1.1-.1.5-.2 1-.3 1.5-.4.1 0 .3.1.3.1 0 .1 0 .4-.1.4 0 0-.3.1-.5.1-1 .2-2 .4-3 .9-.7.3-1.4.5-2.1.3-.4-.1-.8.1-1 .5-.2.4-.4.9-.5 1.3-.5 1.4-.8 2.8-.8 4.2 0 1 .1 2 0 2.9 0 1.4-.1 2.7-.7 4v.1c.6-.2 1.1-.5 1.7-.7 2.8-1.1 5.7-1.9 8.7-2.4 1.8-.2 3.5-.3 5.3-.1.2 0 .3 0 .2.2-.2 1.1-.2 2.2-.6 3.2-.5 1.3-1.3 2.5-2.2 3.6l-.1.1c-.3-.5-.7-.8-1.2-.8-.3 0-.7 0-1 .1-2.1.5-4.3.7-6.4.8-2.6.1-5.2-.1-7.8-.3-.5 0-1.1-.1-1.6-.3-.8-.2-1.2-.9-1.2-1.7 0-.9.2-1.7.6-2.5.4-1.1.9-2.1 1.4-3.2 1.1-2.5 2.2-5.1 3.3-7.6.8-1.9 2-3.5 3.5-4.9.8-.8 1.6-1.6 2.4-2.3.3-.3.4-.4.8-.1.8.5 1.6 1 2.3 1.6.4.3.4.5.1.9-.3.4-.7.7-1.1 1.1-.1.1-.3.1-.5.1-.5.2-.9.1-1.2 0zM5.8 25.5c.3 0 .5.1.8.1 2.4.5 4.9.9 7.4.8 2.1 0 4.2-.2 6.3-.3.7 0 1.3-.1 2-.3.8-.2 1.3-.8 1.3-1.7 0-.8-.2-1.5-.5-2.2-.5-1.2-1-2.3-1.5-3.5-1-2.2-1.9-4.5-2.9-6.7-.6-1.4-1.3-2.8-2.3-4-1.3-1.4-2.7-2.8-4-4.1-.2-.2-.4-.2-.7-.1-.1.1-.3.1-.4.2-.5.3-1 .7-1.5 1l-.7.7c-.2.2-.2.3-.1.5.3.3.5.6.8.9.6.5 1.2.6 1.9.2-.1-.7-.3-.7-.9-.4-.1-.2-.3-.3-.4-.4.3.1.4-.1.4-.4v-.5c.2.3.3.6.5.8.3-.3.6-.4.8-.6l.1.1c0 .1-.1.1-.1.2-.3.5-.3.7.1 1.2s.9.9 1.3 1.3c.1.1.3.2.5.4-.4.2-.7.1-.9 0-.2-.2-.5-.4-.7-.6-.4-.4-.5-.5-1.1-.3-.5.2-.9.2-1.4-.1-.5-.3-1-.4-1.5-.5-.1 0-.3.1-.3.1 0 .1 0 .3.1.4.1.1.2.1.3.2.2 0 .4.1.6.1.9.1 1.8.4 2.7.8.7.4 1.5.6 2.3.4.4-.1.7.1.9.5.2.3.3.7.4 1 .6 1.5 1 3 .9 4.6 0 1-.1 2 0 3 0 1.3.1 2.7.7 3.9v.2c-.1 0-.1 0-.2-.1-2.9-1.4-5.9-2.3-9-2.8C6 19.1 4 19 2 19.2c-.2 0-.3.1-.3.3 0 1.4.4 2.7 1 3.9.4.9 1 1.8 1.7 2.5.4-.3.8-.4 1.4-.4z" fill="#fff"/><path class="st0" d="M67.8 11.9v5.8h-2.4v-.2-5.8c0-.6-.1-1.2-.7-1.5-.6-.4-1.3-.5-2-.1-.7.3-1 .9-1 1.6v6.1h-2.4v-.2-5.9c0-.3-.1-.6-.2-.8-.2-.6-.7-.9-1.3-.9-.7-.1-1.4.1-1.8.8-.2.4-.3.8-.3 1.2v6h-2.4v-.1-6.3c0-1.2.5-2.2 1.4-3 .9-.7 1.9-1 3-1s2.1.5 2.8 1.4c0-.1 0-.1.1-.2.8-.8 1.7-1.2 2.9-1.2 1.1 0 2.1.3 2.9 1 .6.6 1 1.4 1.2 2.2.1.2.2.6.2 1.1zm-9.9 10.2h2.6v-2.6h-2.6v2.6zm31.6-4.4c.9.2 1.8.3 2.7.1 1.5-.2 2.7-1 3.4-2.4.2-.5.4-1 .4-1.5h-2.5c-.2 0-.3 0-.3.3 0 .1 0 .2-.1.3-.2.5-.5 1-1.1 1.1-.2 0-.4.1-.5.1-.9.1-1.7-.4-2-1.3-.4-1.2-.4-2.4 0-3.5.3-.8.8-1.3 1.7-1.4 1.1-.1 1.8.3 2.1 1.4v.2h2.8c0-.3-.1-.5-.1-.8-.3-1.3-1.1-2.3-2.4-2.7-1.1-.4-2.1-.4-3.2-.3-1.6.2-2.8 1-3.5 2.5-.8 1.8-.8 3.7 0 5.6.5 1.2 1.3 2 2.6 2.3zm13.6-7.3c0-.4-.1-.7-.5-.9-.7-.3-1.3-.3-2-.1-.5.1-.8.6-.9 1 0 .1 0 .1-.1.2h-2.5c0-1.3.7-2.6 2-3.1.7-.3 1.4-.4 2.2-.4 1 0 2 .1 3 .6.8.4 1.2 1 1.3 1.9v4.3c0 1-.3 2-1.1 2.7-.5.4-1.1.7-1.8.9-1.3.3-2.5.4-3.8.1-1.4-.3-2.2-1.3-2.2-2.8 0-.9.2-1.7.8-2.3.5-.5 1.1-.7 1.7-.9.8-.1 1.6-.2 2.3-.4.3 0 .6-.1.8-.2.6.1.8-.2.8-.6zm0 2.3c-.5.3-1 .4-1.6.5-.5.1-.9.2-1.4.4-.5.2-.7.8-.6 1.4.1.6.4.9 1 1 .6.1 1.1 0 1.7-.3.5-.2.8-.6.9-1.1v-1.9zM80 17.4v.2h2.6v-.2-4.5-1c.1-.9.6-1.6 1.4-1.8.5-.1.9-.2 1.4-.1h.3V7.4h-.1c-.7 0-1.3 0-2 .2-1.5.4-2.6 1.2-3.2 2.6-.3.8-.5 1.6-.4 2.5.1 1.5 0 3.1 0 4.7zm-24.6 2.1c-.2 0-.3 0-.5.1-.9.2-1.6.7-1.6 1.9v11h2.4v-13h-.3zm70.8-3.3c-.5.7-1.2 1.2-2 1.4-1.2.4-2.4.4-3.6.1-1.5-.3-2.5-1.3-3.1-2.7-.9-2.3-.7-4.4.9-6.4.6-.8 1.5-1.2 2.5-1.4.4-.1.8-.1 1.3-.1.8 0 1.5.1 2.2.4 1.1.4 1.8 1.2 2.3 2.3 1 2.2.9 4.4-.5 6.4zm-1.6-3.6c-.1-.4-.1-.8-.2-1.2-.1-.6-.4-1.2-.9-1.5-1.3-.9-3-.3-3.5 1.1-.4 1-.3 2-.1 3.1.3 1.1 1 1.6 2.1 1.7.9 0 1.6-.3 2-1.1.5-.7.6-1.4.6-2.1zM75.9 22.7c-.4 0-.8.1-1.2.2-2.2.5-3.5 2.2-3.6 4.3-.1 1-.1 3.3 0 5.3h2.6v-4.1c0-.4 0-.8.1-1.2.1-1 .6-1.6 1.5-1.8.4-.1.9-.1 1.3-.1h.3v-2.7c-.3.1-.7.1-1 .1zm10.8 2.5c.4 1 .4 2 .4 3.1h-7.3c0 .6.2 1.2.6 1.7.4.5.9.7 1.6.8.5 0 .9 0 1.4-.1.3-.1.5-.3.7-.5 0-.1.1-.1.2-.1H87c-.1.5-.4.9-.7 1.3-.8 1-1.9 1.5-3.1 1.6-1.2.1-2.4 0-3.5-.6-1.4-.7-2.1-1.9-2.3-3.4-.2-1.1-.1-2.2.2-3.3.5-1.7 2-3 3.8-3.2.9-.1 1.7-.1 2.6.2 1.2.2 2.2 1.2 2.7 2.5zm-2.3 1.4c0-1.2-.9-2.1-2.3-2.1s-2.1 1-2.2 2.1h4.5zm31.9-22.2v9.4c0 1.6-.9 3.2-2.8 3.8-1.6.5-3.1.4-4.6-.2-1-.4-1.6-1.2-2-2.2-.3-.9-.4-1.8-.4-2.8 0-.9.2-1.7.5-2.5.5-1.2 1.4-2.1 2.7-2.4 1.1-.3 2.1-.2 3.1.5.3.2.5.5.8.8v-.6-2c0-1.2.6-1.7 1.6-1.9.3 0 .5 0 .8-.1h.2c.1 0 .1.1.1.2zm-2.6 8.1c0-.2-.1-.6-.1-1-.2-.7-.5-1.4-1.2-1.7-1-.5-2.3-.1-2.8.9-.2.5-.3 1-.4 1.5-.1.8 0 1.6.3 2.3.3.7.8 1.2 1.6 1.2.8.1 1.6-.1 2-.9.5-.6.6-1.3.6-2.3zM78.6 15c-.1.5-.4.9-.7 1.3-.8 1-1.9 1.5-3.1 1.6-1.2.1-2.4 0-3.5-.6-1.4-.7-2.1-1.9-2.3-3.4-.2-1.1-.1-2.2.2-3.3.5-1.7 2-3 3.8-3.2.9-.1 1.7-.1 2.6.2 1.4.4 2.4 1.3 2.9 2.7.4 1 .4 2 .4 3.1h-7.3c0 .6.2 1.2.6 1.7.4.5.9.7 1.6.8.5 0 .9 0 1.4-.1.3-.1.5-.3.7-.5 0-.1.1-.1.2-.1.7-.2 1.5-.2 2.5-.2-.1 0 0 0 0 0zm-7-3.4h4.5c0-1.2-.9-2.1-2.3-2.1s-2.1.9-2.2 2.1zM69.3 23c-.8 0-1.2.3-1.4 1-.4 1.5-1.2 3.8-1.7 5.4-.7-2.4-1.4-4-2.1-6.4h-2.8l3.2 9.3c0 .1.2.2.3.2h2.5c.1 0 .3-.1.3-.2l3.3-9.3h-1.6zm-11.4 9.5h2.6V23h-2.6v9.5z"/></svg>