<svg height="47" viewBox="0 0 121 47" width="121" xmlns="http://www.w3.org/2000/svg" xmlns:xlink="http://www.w3.org/1999/xlink"><mask id="a" fill="#fff"><path d="m0 .219h94.612v43.161h-94.612z" fill="#fff" fill-rule="evenodd"/></mask><g fill="#c3d3ea" fill-rule="evenodd"><path d="m82.362 13.202c0-.935.664-1.692 1.517-1.979 2.224-.764 5.137-1.145 9.492-1.021h.037c.66 0 1.2.534 1.204 1.195v1.627a1.208 1.208 0 0 1 -1.345 1.2c-1.611-.14-3.561.197-4.41.589v17.667c-.02.65-.55 1.17-1.204 1.17h-4.086a1.203 1.203 0 0 1 -1.205-1.204zm-3.254 9.368v8.939c-.002.483-.302.901-.739 1.099-.01.005-.019.01-.03.014-2.026.796-5.06 1.35-8.655 1.35-6.966 0-10.636-2.518-10.636-7.269 0-5.893 4.863-8.623 13.526-8.186-.2-2.28-1.546-3.683-4.765-3.683-1.655 0-3.262.343-4.557.847-.005 0-.008 0-.011.004a1.22 1.22 0 0 1 -1.63-.758l-.647-1.656a1.221 1.221 0 0 1 .695-1.56c2.002-.894 4.445-1.563 7.361-1.448 6.006.235 10.088 3.405 10.088 9.953zm-6.522 7.789.002-8.786c-3.792-.296-6.922 1.097-6.922 4.746 0 2.675 1.608 4.261 4.377 4.261 1.796 0 2.543-.221 2.543-.221zm-22.324-.808c-.556.344-1.421.557-2.32.557-3.338 0-4.708-2.482-4.708-7.704 0-5.521 1.412-8.302 4.836-8.302.9 0 1.68.13 2.192.385zm5.803-17.955c.414.195.704.615.704 1.104v20.714c0 6.548-4.081 9.72-10.087 9.954-2.916.115-5.36-.555-7.361-1.45-.006-.002-.009-.002-.014-.005a1.22 1.22 0 0 1 -.682-1.552l.647-1.66a1.22 1.22 0 0 1 1.63-.756c.003.004.006.004.011.006 1.296.503 2.901.846 4.556.846 3.51 0 4.793-1.668 4.793-4.322v-1.283c-.77.427-2.096.724-4.023.724-5.52 0-9.502-4.235-9.502-11.126 0-7.705 3.94-12.54 11.858-12.54 3.068 0 5.722.544 7.438 1.326a.096.096 0 0 1 .032.02zm-29.772-8.063c0-.481.282-.898.69-1.09l3.822-1.995c.212-.13.525-.23.786-.23.664 0 1.204.538 1.204 1.203l-.004 25.152c.017 1.498 1.34 2.69 2.842 2.69a1.2 1.2 0 0 1 1.198 1.203v1.953a1.2 1.2 0 0 1 -1.198 1.206h-1.32a8.02 8.02 0 0 1 -8.02-8.023v-22.07zm-6.682 30.119h-.009a1.206 1.206 0 0 1 -1.144-.859l-.008-.03-1.584-5.54h-9.054l-1.662 5.555a1.203 1.203 0 0 1 -1.157.873h-3.789a1.205 1.205 0 0 1 -1.15-1.56l.011-.034 8.995-27.621a1.203 1.203 0 0 1 1.16-.874h5.16c.535 0 .99.347 1.145.832l8.964 27.66a1.205 1.205 0 0 1 -1.122 1.597h-4.755zm-3.707-10.497h-7.042l2.799-9.798c.613-2.143.787-3.63.787-3.63h.088s.132 1.532.699 3.63z" mask="url(#a)" transform="translate(0 -.219)"/><path d="m99.426 11.202a1.202 1.202 0 0 1 1.847-.986s6.97 4.021 6.983 4.03l.01.004a1.206 1.206 0 0 1 -.07 2.094l-6.983 4.033-.008.003a1.206 1.206 0 0 1 -1.778-1.106v-8.072zm11.179 6.449a1.203 1.203 0 0 1 1.848-.986l6.982 4.03.01.006c.344.212.574.592.574 1.026 0 .463-.263.865-.646 1.069l-6.98 4.03-.009.007c-.357.191-.802.2-1.176-.018a1.204 1.204 0 0 1 -.603-1.091v-8.074zm-11.179 6.455a1.199 1.199 0 0 1 1.847-.984s6.97 4.02 6.983 4.03l.01.005a1.2 1.2 0 0 1 .573 1.026c0 .463-.262.866-.644 1.068 0 0-6.969 4.024-6.982 4.03l-.008.005c-.358.192-.801.202-1.177-.017a1.2 1.2 0 0 1 -.602-1.09zm20.689 22.729v-5.191c0-1.306-.915-2.349-2.692-2.349-1.236 0-1.999.341-2.471.742-.43-.412-1.139-.742-2.374-.742-1.304 0-2.193.179-3.023.549v6.99h2.164v-6.054c.264-.097.486-.138.873-.138.749 0 1.166.385 1.166.975v5.219h2.167v-5.838c.248-.247.57-.356.944-.356.748 0 1.08.44 1.08 1.003v5.19zm-11.554-3.708c0-2.21-1.14-3.832-3.319-3.832-2.15 0-3.289 1.621-3.289 3.832 0 2.21 1.138 3.845 3.304 3.845 2.165 0 3.304-1.634 3.304-3.845zm-2.152-.028c0 1.334-.195 2.417-1.152 2.417-.945 0-1.153-1.083-1.153-2.417 0-1.318.195-2.47 1.153-2.47.957 0 1.152 1.152 1.152 2.47zm-4.714 3.336-.46-1.29c-.22.193-.5.302-.902.302-.86 0-1.374-.866-1.374-2.361 0-1.512.445-2.364 1.39-2.364.43 0 .693.138.886.29l.445-1.182c-.333-.276-.916-.535-1.832-.535-1.665 0-3.067 1.317-3.067 3.816 0 2.486 1.305 3.86 3.08 3.86.944 0 1.513-.232 1.834-.536zm-5.645-3.185c.098-2.498-1-3.954-3.163-3.954-2.153 0-3.373 1.497-3.373 3.816 0 2.364 1.318 3.861 3.608 3.861 1.263 0 2.097-.247 2.678-.537l-.485-1.33c-.403.205-1.069.396-1.944.396-1.095 0-1.65-.534-1.804-1.619zm-2.012-.795-2.61.383c-.069-1.523.488-2.28 1.374-2.28.793 0 1.236.58 1.236 1.897zm-7.725 4.38h2.165v-10.78h-2.165zm-1.033-3.585c.097-2.498-1-3.954-3.165-3.954-2.152 0-3.374 1.497-3.374 3.816 0 2.364 1.32 3.861 3.611 3.861 1.261 0 2.096-.247 2.678-.537l-.486-1.33c-.402.205-1.07.396-1.943.396-1.096 0-1.652-.534-1.805-1.619zm-2.013-.795-2.609.383c-.07-1.523.486-2.28 1.374-2.28.792 0 1.235.58 1.235 1.897zm-4.422-3.57v-1.498h-5.579v1.498h1.666v7.95h2.261v-7.95z"/></g></svg>