<svg width="126" height="26" fill="none" xmlns="http://www.w3.org/2000/svg"><g clip-path="url(#a)" fill="#fff"><path d="m29.829 15.979-1.426-.125c-1.119-.09-1.552-.537-1.552-1.289 0-.895.685-1.45 1.985-1.45.92 0 1.733.216 2.365.698l.848-.84c-.795-.644-1.931-.949-3.194-.949-1.896 0-3.267.966-3.267 2.577 0 1.45.921 2.218 2.653 2.362l1.462.125c1.028.09 1.48.519 1.48 1.289 0 1.038-.903 1.557-2.365 1.557-1.1 0-2.058-.287-2.762-1.02l-.867.858c.976.93 2.148 1.271 3.646 1.271 2.147 0 3.61-.985 3.61-2.684 0-1.647-1.065-2.237-2.617-2.38h.001Zm11.11-3.954c-1.425 0-2.322.278-3.108 1.264-.01.015.852.846.852.846.523-.733 1.101-1.001 2.238-1.001 1.625 0 2.274.644 2.274 1.932v.84h-2.67c-1.986 0-3.068 1.003-3.068 2.542-.02.66.219 1.303.667 1.79.56.573 1.281.805 2.51.805 1.19 0 1.84-.232 2.562-.948v.841h1.3v-5.977c0-1.915-1.173-2.934-3.556-2.934h-.002Zm2.257 5.798c0 .734-.145 1.235-.451 1.52-.56.538-1.227.592-1.986.592-1.407 0-2.04-.483-2.04-1.503 0-1.021.65-1.557 1.986-1.557h2.49v.948Zm6.388-4.653c.848 0 1.371.25 2.039.985 0 0 .87-.839.862-.846-.91-.967-1.684-1.283-2.9-1.283-2.238 0-3.935 1.503-3.935 4.509 0 3.006 1.697 4.51 3.934 4.51 1.227 0 2.003-.324 2.924-1.307l-.885-.842c-.667.735-1.19 1.002-2.039 1.002a2.413 2.413 0 0 1-2.057-1.002c-.415-.573-.577-1.252-.577-2.361 0-1.11.162-1.79.577-2.363a2.412 2.412 0 0 1 2.057-1.002Zm11.128-1.05h-1.62l-4.026 3.885.007-7.81h-1.3v12.741h1.3l-.007-3.213 1.577-1.57 2.978 4.783h1.605l-3.683-5.675 3.17-3.142Zm6.004-.217c-1.332 0-2.23.514-2.785 1.098-.812.84-1.02 1.852-1.02 3.463 0 1.63.208 2.64 1.02 3.482.554.584 1.453 1.097 2.785 1.097s2.248-.514 2.802-1.097c.812-.84 1.02-1.852 1.02-3.482 0-1.611-.208-2.624-1.02-3.463-.554-.584-1.471-1.098-2.802-1.098Zm1.055 6.74c-.281.27-.664.412-1.055.394a1.388 1.388 0 0 1-1.038-.395c-.467-.462-.519-1.25-.519-2.177s.052-1.698.519-2.161c.275-.27.651-.413 1.038-.394a1.427 1.427 0 0 1 1.055.394c.466.463.518 1.234.518 2.16 0 .927-.052 1.715-.518 2.178Zm8.754-6.638-1.816 5.523-1.833-5.523h-2.37l3.321 8.935h1.764l3.303-8.935h-2.37Zm6.195-.102c-2.336 0-3.927 1.646-3.927 4.561 0 3.619 2.041 4.58 4.168 4.58 1.626 0 2.509-.498 3.425-1.407l-1.366-1.32c-.571.566-1.055.84-2.042.84-1.261 0-1.97-.84-1.97-1.99h5.638v-.995c0-2.452-1.419-4.27-3.927-4.27Zm-1.713 3.738c.003-.331.074-.657.209-.96a1.682 1.682 0 0 1 1.504-.927c.638 0 1.22.36 1.505.927.132.302.203.629.207.96h-3.425Zm8.955-2.778v-.858h-2.198v8.935h2.25v-5.385c0-1.131.76-1.646 1.453-1.646.456-.016.893.177 1.186.525l1.702-1.692c-.623-.618-1.246-.84-2.127-.84a3.061 3.061 0 0 0-2.266.961Zm5.091-1.79v9.858h2.248v-7.045h1.66v-1.698h-1.66v-.977c0-.515.26-.806.795-.806h.864V8.519h-1.279c-1.833 0-2.63 1.286-2.63 2.554h.002Zm13.165.829c-1.332 0-2.232.514-2.785 1.097-.812.84-1.021 1.852-1.021 3.464 0 1.63.209 2.64 1.021 3.481.553.584 1.452 1.098 2.785 1.098 1.331 0 2.247-.514 2.801-1.098.813-.84 1.02-1.852 1.02-3.48 0-1.612-.207-2.625-1.02-3.465-.554-.584-1.47-1.097-2.801-1.097Zm1.055 6.74c-.283.27-.665.412-1.055.393a1.394 1.394 0 0 1-1.039-.394c-.467-.462-.519-1.252-.519-2.177 0-.927.052-1.698.519-2.161.275-.271.652-.413 1.039-.395.39-.018.772.125 1.055.395.466.462.519 1.234.519 2.16 0 .927-.053 1.715-.519 2.178Zm13.388-6.638-1.452 5.524-1.851-5.523h-1.643l-1.833 5.523-1.452-5.523h-2.387l2.767 8.935h1.85l1.886-5.608 1.885 5.608h1.85l2.75-8.935h-2.37v-.001Zm-20.383 6.245v-9.73h-2.248v9.867c0 1.269.778 2.555 2.629 2.555h1.279v-1.886h-.864c-.571 0-.795-.274-.795-.806h-.001Zm-66.23-4.733 1.202-1.19h-2.462V9.43H33.49v9.143c0 1.307.757 2.363 2.273 2.363h.92v-1.11h-.685c-.83 0-1.21-.483-1.21-1.288v-5.02h1.259l.002-.002Z"/><path fill-rule="evenodd" clip-rule="evenodd" d="M18.958 16.622h2.187v8.67H1.473v-8.67h2.185v6.502h15.3v-6.502Z"/><path d="m6.04 15.977 10.735 2.237.451-2.128-10.734-2.238-.452 2.129Zm1.42-5.098 9.945 4.594.927-1.973-9.946-4.593-.926 1.972Zm2.753-4.838 8.43 6.962 1.404-1.672-8.43-6.961-1.405 1.671Zm5.44-5.145-1.76 1.297 6.547 8.73 1.76-1.298-6.546-8.73Zm-9.81 20.06h10.93v-2.167H5.843v2.167Z"/></g><defs><clipPath id="a"><path fill="#fff" transform="translate(.633 .561)" d="M0 0h125v25H0z"/></clipPath></defs></svg>