<svg height="26" viewBox="0 0 113 26" width="113" xmlns="http://www.w3.org/2000/svg" xmlns:xlink="http://www.w3.org/1999/xlink"><mask id="a" fill="#fff"><path d="m0 .516h19.18v25.435h-19.18z" fill="#fff" fill-rule="evenodd"/></mask><g fill="#c3d3ea" fill-rule="evenodd"><path d="m98.233.516-11.928 24.557h8.026l1.767-3.273h7.682l.582 3.273h7.918v-.003l-5.03-24.554zm3.489 7.894 1.103 7.275h-4.023zm-49.602-7.894-3.455 24.557h7.978l3.456-24.557zm-21.25 0-11.927 24.557h8.027l1.766-3.273h7.682l.582 3.273h7.918l-5.031-24.557h-9.016zm3.476 7.924.012-.03 1.104 7.275h-4.024zm34.324 5.15 6.848 11.344h9.996l-6.848-11.344zm1.038-1.742h10.332l8.974-11.296h-10.332z"/><path d="m68.35 13.569-8.973 11.435h10.331l8.974-11.435zm-5.247-13.155h9.643l6.605 11.434h-9.641z"/><path d="m19.18 1.912-.768 7.222c-2.94-4.056-9.755-1.258-10.29 3.795-.68 6.414 5.878 7.91 9.448 4.133l-.77 7.238c-1.065.524-2.107.93-3.135 1.204a12.793 12.793 0 0 1 -3.064.443c-1.279.027-2.437-.107-3.48-.4a8.512 8.512 0 0 1 -2.823-1.367c-1.612-1.18-2.778-2.676-3.496-4.5-.717-1.828-.954-3.893-.709-6.198.197-1.854.664-3.544 1.409-5.077.737-1.531 1.759-2.923 3.06-4.185 1.23-1.203 2.568-2.111 4.018-2.73 1.444-.608 3.02-.934 4.723-.97a11.66 11.66 0 0 1 2.984.314c.974.234 1.934.597 2.892 1.079" mask="url(#a)" transform="translate(0 -.516)"/></g></svg>