<svg height="43" viewBox="0 0 128 43" width="128" xmlns="http://www.w3.org/2000/svg" xmlns:xlink="http://www.w3.org/1999/xlink"><mask id="a" fill="#fff"><path d="m0 .118h127.951v42.483h-127.951z" fill="#fff" fill-rule="evenodd"/></mask><g fill="none" fill-rule="evenodd"><path d="m127.872 10.233c1.743 9.988-25.45 23.07-60.743 29.216-35.289 6.148-65.309 3.028-67.049-6.965-1.739-9.99 25.46-23.067 60.75-29.212 35.29-6.15 65.305-3.03 67.043 6.96" fill="#c3d3eb" mask="url(#a)" transform="translate(0 -.148)"/><path d="m86.631 14.526h4.913l3.04 10.386h.073l-.18-10.386h3.274v13.091h-4.709l-3.268-10.743h-.07l.181 10.743h-3.254zm-53.319 13.229h-3.572l2.453-13.229h5.884l2.441 13.229h-3.557l-1.763-12.003h-.075zm13.313-11.893h-.072l-.083 11.893h-3.313l.292-13.229h5.398l1.633 10.114h.07l1.635-10.113h5.395l.287 13.229h-3.306l-.087-11.893h-.07l-2.21 11.893h-3.357zm-22.455 8.161c.129.32.089.732.029.981-.111.44-.41.888-1.29.888-.829 0-1.332-.475-1.332-1.202v-1.28h-3.547l-.003 1.025c0 2.949 2.323 3.838 4.81 3.838 2.393 0 4.364-.818 4.677-3.021.16-1.143.041-1.891-.014-2.174-.558-2.769-5.579-3.595-5.953-5.144a1.75 1.75 0 0 1 -.014-.698c.091-.421.381-.887 1.21-.887.772 0 1.229.478 1.229 1.2v.817h3.299v-.929c0-2.881-2.586-3.331-4.46-3.331-2.353 0-4.276.777-4.628 2.93a4.605 4.605 0 0 0 .03 1.789c.578 2.703 5.277 3.486 5.957 5.198m43.015-.024c.131.318.089.718.03.967-.108.439-.404.88-1.278.88-.818 0-1.317-.475-1.317-1.185l-.003-1.27h-3.511l-.004 1.011c0 2.92 2.3 3.801 4.763 3.801 2.367 0 4.32-.807 4.628-2.991.16-1.134.046-1.872-.012-2.15-.555-2.743-5.525-3.561-5.895-5.095a1.662 1.662 0 0 1 -.013-.684c.095-.425.379-.879 1.198-.879.766 0 1.213.467 1.213 1.184v.808h3.274v-.92c0-2.85-2.565-3.297-4.42-3.297-2.327 0-4.235.768-4.579 2.905a4.55 4.55 0 0 0 .031 1.767c.57 2.675 5.222 3.453 5.895 5.148m11.112 1.777c.918 0 1.205-.636 1.268-.96.027-.144.034-.335.03-.506v-9.79h3.346v9.49c.007.243-.017.744-.028.869-.235 2.47-2.187 3.27-4.618 3.27-2.433 0-4.387-.8-4.618-3.27a11.196 11.196 0 0 1 -.029-.869v-9.49h3.343v9.79c0 .171.006.364.031.506.072.324.35.96 1.275.96m27.596-.14c.959 0 1.293-.605 1.355-.958.024-.152.03-.336.03-.503v-1.92h-1.358v-1.932h4.69v3.55c-.003.248-.008.431-.047.872-.221 2.407-2.309 3.266-4.653 3.266-2.349 0-4.434-.86-4.657-3.266a10.863 10.863 0 0 1 -.048-.871l.003-5.57c0-.235.03-.652.055-.872.293-2.473 2.298-3.268 4.647-3.268 2.346 0 4.4.79 4.643 3.268.043.421.03.871.03.871v.442h-3.336v-.741a3.068 3.068 0 0 0 -.044-.503c-.056-.293-.31-.965-1.319-.965-.964 0-1.246.636-1.317.965-.04.174-.056.41-.056.624v6.05c-.003.167.007.351.034.503.058.354.39.958 1.348.958" fill="#fff"/></g></svg>