<svg height="33" viewBox="0 0 139 33" width="139" xmlns="http://www.w3.org/2000/svg" xmlns:xlink="http://www.w3.org/1999/xlink"><mask id="a" fill="#fff"><path d="m.067.183h4.66v25.742h-4.661z" fill="#fff" fill-rule="evenodd"/></mask><mask id="b" fill="#fff"><path d="m.02.18h16.808v25.58h-16.809z" fill="#fff" fill-rule="evenodd"/></mask><mask id="c" fill="#fff"><path d="m.3.362h25.544v18.562h-25.544z" fill="#fff" fill-rule="evenodd"/></mask><g fill="#c3d3ea" fill-rule="evenodd"><path d="m8.483 12.331c-2.485 0-3.711 2.559-3.711 4.757 0 2.526 1.226 4.823 3.711 4.823 2.552 0 3.745-2.362 3.745-4.659s-1.127-4.92-3.745-4.92zm8.517 12.139c0 5.676-3.745 8.53-9.18 8.53-1.955 0-7.522-.952-7.522-3.543 0-.886.994-2.067 1.922-2.067 1.525 0 3.215 1.476 5.965 1.476 2.32 0 4.043-1.345 4.043-3.74v-1.116h-.066c-.995 1.444-2.618 2.231-4.805 2.231-5.004 0-7.357-4.363-7.357-9.055 0-4.756 3.049-9.186 7.854-9.186 1.624 0 3.48.722 4.374 2.166.298-1.247 1.06-1.969 2.386-1.969 1.392 0 2.386 1.05 2.386 2.625z"/><path d="m.067 2.836c0-1.592.97-2.653 2.33-2.653 1.358 0 2.33 1.061 2.33 2.653v20.435c0 1.593-.972 2.654-2.33 2.654-1.36 0-2.33-1.061-2.33-2.654v-20.435z" mask="url(#a)" transform="translate(18)"/><path d="m28.744 17.033c0 2.233 1.186 4.694 3.756 4.694s3.756-2.46 3.756-4.694-1.153-4.76-3.756-4.76-3.756 2.526-3.756 4.76m12.256 0c0 4.856-3.394 8.967-8.5 8.967-5.107 0-8.5-4.111-8.5-8.967 0-4.727 3.492-9.033 8.5-9.033s8.5 4.306 8.5 9.033"/><path d="m8.44 21.443c2.457 0 3.67-2.552 3.67-4.743 0-2.225-1.213-4.809-3.67-4.809-2.523 0-3.703 2.355-3.703 4.645s1.115 4.907 3.703 4.907zm-8.42-18.646c0-1.57.981-2.617 2.357-2.617s2.36 1.047 2.36 2.617v6.413c1.244-1.08 2.85-1.636 4.488-1.636 5.079 0 7.602 4.743 7.602 9.323 0 4.449-3.015 8.865-7.766 8.865-1.605 0-3.44-.72-4.325-2.159-.295 1.243-1.048 1.963-2.359 1.963-1.376 0-2.359-1.047-2.359-2.617v-20.151z" mask="url(#b)" transform="translate(41)"/><path d="m63.744 17.033c0 2.233 1.186 4.694 3.756 4.694s3.756-2.46 3.756-4.694-1.153-4.76-3.756-4.76-3.756 2.526-3.756 4.76m12.256 0c0 4.856-3.394 8.967-8.5 8.967s-8.5-4.111-8.5-8.967c0-4.727 3.492-9.033 8.5-9.033s8.5 4.306 8.5 9.033m2.5 3.967c1.378 0 2.5 1.122 2.5 2.5s-1.122 2.5-2.5 2.5a2.503 2.503 0 0 1 -2.5-2.5c0-1.378 1.122-2.5 2.5-2.5m14.726-7.82c-1.162 0-2.194-.906-3.678-.906-2.645 0-3.903 2.362-3.903 4.759 0 2.298 1.387 4.694 3.903 4.694 1.162 0 2.903-.972 3.452-.972 1.096 0 2 .94 2 2.04 0 2.395-4 3.205-5.677 3.205-5 0-8.323-4.111-8.323-8.967 0-4.727 3.42-9.033 8.323-9.033 1.837 0 5.677.68 5.677 2.946 0 .971-.678 2.234-1.774 2.234m6.518 3.853c0 2.233 1.186 4.694 3.756 4.694s3.756-2.46 3.756-4.694-1.154-4.76-3.756-4.76-3.756 2.526-3.756 4.76m12.256 0c0 4.856-3.394 8.967-8.5 8.967s-8.5-4.111-8.5-8.967c0-4.727 3.492-9.033 8.5-9.033s8.5 4.306 8.5 9.033"/><path d="m.3 3.264c0-1.62.996-2.7 2.389-2.7 1.228 0 2.024.675 2.19 1.823 1.159-1.283 2.685-2.025 4.444-2.025 1.99 0 3.682.844 4.942 2.463 1.329-1.552 3.418-2.463 5.045-2.463 3.881 0 6.535 2.295 6.535 6.547v9.315c0 1.62-.996 2.7-2.389 2.7s-2.388-1.08-2.388-2.7v-8.471c0-1.958-1.061-3.341-2.787-3.341-1.758 0-2.82 1.383-2.82 3.341v8.47c0 1.62-.995 2.7-2.388 2.7s-2.388-1.08-2.388-2.7v-8.47c0-1.958-1.062-3.341-2.787-3.341-1.957 0-2.82 1.383-2.82 3.341v8.47c0 1.62-.995 2.7-2.388 2.7s-2.389-1.08-2.389-2.7v-12.958z" mask="url(#c)" transform="translate(113 7)"/></g></svg>