<svg version="1.1" id="Camada_1" xmlns="http://www.w3.org/2000/svg" x="0" y="0" viewBox="0 0 128.7 38.7" xml:space="preserve"><style>.st0{fill-rule:evenodd;clip-rule:evenodd;fill:#c3d3eb}</style><path class="st0" d="M64.4 36.1h-3.3v-.3-7.6c0-.3 0-.7-.1-1-.2-.8-.8-1.3-1.7-1.5-.4-.1-.8-.1-1.2.1-1 .3-1.5 1-1.5 2.1V36.1h-3.4v-.2-7.7c0-.9.2-1.8.5-2.7.6-1.3 1.6-2 2.9-2.5 1.4-.5 2.8-.6 4.2-.1.7.2 1.3.7 1.9 1.2l.1.1c.4-.3.8-.7 1.2-.9.8-.5 1.7-.7 2.6-.7 2.2 0 3.9.9 5.1 2.7.5.7.7 1.6.8 2.5v8c0 .2 0 .2-.2.2h-1.6c-1 0-1.6-.6-1.6-1.7v-6.5c0-.2 0-.4-.1-.6-.2-1-1.2-1.7-2.3-1.7-.3 0-.6.1-.9.2-.9.3-1.3 1-1.3 2.1V35.6c-.1.3-.1.4-.1.5zM3.5 30.7h3.1c.1 0 .2 0 .2.2.3 1.3 1.2 2.1 2.5 2.3.9.1 1.8.1 2.7-.2.7-.3 1.2-.7 1.3-1.5.1-.6-.1-1-.5-1.4-.5-.4-1.1-.7-1.7-.8-1.2-.3-2.3-.6-3.5-1-.6-.2-1.2-.5-1.8-.8-1.3-.7-2-1.8-2.1-3.3-.1-1.5.4-2.9 1.5-3.9s2.4-1.5 3.9-1.6c1.4-.1 2.8 0 4.2.6 1.8.8 2.8 2.2 3.2 4.1 0 .1 0 .3.1.5h-2.3c-.5 0-.9-.3-1.1-.7-.4-.9-1.1-1.4-2.1-1.5-.8-.2-1.6-.2-2.5 0-.8.3-1.4.8-1.6 1.7-.1.6.1 1.2.6 1.5.8.5 1.6.7 2.5 1 1.1.3 2.2.6 3.3 1 .8.3 1.5.6 2.1 1.2.7.7 1.1 1.6 1.2 2.6.2 1.9-.5 3.4-2 4.6-.7.6-1.6.9-2.6 1-1.5.2-2.9.2-4.4-.2-2.3-.7-3.7-2.2-4.2-4.6 0-.1 0-.3-.1-.4.1-.2.1-.3.1-.4zM35.7 36.1c.2-.5.3-1 .5-1.5 1.7-4.7 3.3-9.4 5-14.1.4-1 .9-1.3 1.8-1.3h2.5c.2 0 .3.1.3.2 1 2.8 2 5.7 3.1 8.5.9 2.6 1.9 5.2 2.8 7.8 0 .1 0 .1.1.2H48.5c-.2 0-.2-.1-.3-.2-.4-1-.7-2.1-1.1-3.1-.1-.2-.1-.2-.3-.2h-6.1c-.2 0-.3.1-.4.3-.3 1-.7 2-1.1 3 0 .1-.1.2-.2.2h-3.2c0 .2 0 .2-.1.2zm8.1-12.6c-.8 2.1-1.5 4.1-2.3 6.2H46c-.7-2.1-1.5-4.2-2.2-6.2zM114.4 26.5c.2-1.3.9-2.2 1.9-2.9.9-.6 1.8-.8 2.9-.9 1.4-.1 2.7.1 4 .7 1.4.7 2 1.8 2 3.3V36c0 .2 0 .2-.2.2h-1.4c-.5 0-.9-.1-1.2-.5-.5.2-1 .4-1.5.5-.7.1-1.4.1-2.1.1-.9 0-1.8-.2-2.7-.6-1.3-.6-2-1.7-2.1-3.1-.2-2 .9-3.6 2.9-4.1.8-.2 1.6-.3 2.3-.5.6-.1 1.2-.2 1.7-.4l.6-.3c.5-.3.5-.9.1-1.4-.2-.2-.4-.3-.6-.4-.8-.3-1.6-.3-2.4-.1-.5.1-.8.4-1 .9 0 .1-.1.1-.2.1-.9.1-1.9.1-3 .1.1 0 .1 0 0 0zm7.7 3c-.5.4-1 .5-1.5.6-.7.1-1.4.3-2.2.4-.7.2-1.1.7-1.1 1.5 0 .6.4 1.2 1 1.5.8.3 1.6.3 2.4.1 1-.3 1.4-.8 1.5-1.8v-1.9c-.1-.1-.1-.2-.1-.4zM85.9 30.3h-9.3c.1.3.1.6.2.8.4 1.5 1.6 2.4 3.1 2.4.7 0 1.4-.1 2-.5.2-.2.4-.3.6-.5.3-.2.6-.4.9-.4h2.4c-.1.2-.1.5-.2.7-.8 2-2.3 3.1-4.4 3.4-1 .1-2 .2-3-.1-2-.6-3.4-1.9-4.1-3.9-.4-1.2-.4-2.5-.3-3.8.1-1 .3-1.9.8-2.7 1-1.6 2.4-2.6 4.3-2.9 1.5-.2 2.9 0 4.2.7 1.6.9 2.4 2.3 2.8 4.1 0 .9.1 1.8 0 2.7zm-9.2-2.2h5.9c.2-1.3-1.1-2.7-2.8-2.8-1.8-.1-3 1.4-3.1 2.8zM29.4 22.9v7.5c0 .9-.1 1.9-.5 2.7-.6 1.5-1.6 2.4-3.1 2.8-1.3.4-2.7.4-4 0-1.9-.5-3.1-1.8-3.5-3.7-.2-.8-.2-1.7-.2-2.6v-6.5-.3h3.4V30.7c0 .3 0 .7.1 1 .2.7.7 1.2 1.5 1.3.6.1 1.1 0 1.7-.2.9-.4 1.3-1.2 1.3-2.1v-6.1c0-.2 0-.5.1-.7.2-.7.7-1.1 1.5-1.1h1.5c.1.1.1.1.2.1zM112.8 26.5h-3c-.1 0-.2 0-.2-.1-.4-.7-1.1-1-1.8-1.1-.6-.1-1.3 0-1.8.2-1 .4-1.5 1.1-1.8 2.1-.4 1.4-.3 2.7.3 4 .6 1.2 1.5 1.8 2.8 1.8.7 0 1.4-.1 1.9-.5.2-.2.4-.3.6-.5.2-.2.4-.3.7-.3h2.6l-.3.9c-.8 1.8-2.2 2.8-4.1 3.1-1.3.3-2.5.2-3.8-.2-1.7-.6-2.8-1.9-3.4-3.5-.8-2.2-.8-4.4.3-6.6 1-1.8 2.5-2.9 4.5-3.2 1.9-.3 3.7.2 5.1 1.6.6.6 1 1.4 1.3 2.2.1 0 .1 0 .1.1zM34.5 36.1h-3.4v-.2-14.8c0-.2 0-.5.1-.7.1-.6.5-1 1.1-1h2.2v16.7zM94.5 26.2c-.7.1-1.3.2-1.9.3-.3.1-.6.2-.9.4-.7.4-1 1-1 1.8V36.1h-3.4v-.2-5.2-1.9c.1-2.7 1.5-4.5 4.1-5.4 1-.3 2-.4 3-.4h.2c-.1 1.1-.1 2.1-.1 3.2zM99.5 36.1h-3.4v-.3-11.2c0-.2 0-.5.1-.7.2-.6.7-1 1.3-1h2v13.2zM99.5 21.8h-3.4c0-.6-.2-1.3.3-1.9.3-.4.7-.6 1.2-.6h1.9v2.5zM78.8 21.8c.1-.2.2-.3.3-.4.4-.6.8-1.1 1.1-1.7.2-.2.4-.4.7-.4h2.4c0 .1-.1.1-.1.1l-2 2c-.2.2-.5.3-.8.3-.5.1-1 .1-1.6.1z"/><g><path class="st0" d="M125.2 9.1c-.2 0-.3 0-.5.1-1.2.3-2.3.5-3.5.5-1.7 0-3.4-.1-5.1-.3l-5.4-.9c-2.7-.5-5.4-1-8.1-1.4-1.4-.2-2.8-.3-4.2-.4-1.5-.1-2.9-.1-4.4 0-1.2.1-2.5.3-3.7.6-2.6.6-5 1.6-7.4 2.7-3.2 1.5-6.2 3.1-9.2 4.9-.1 0-1.6.9-1.8.9.4 0 1.1-.1 1.4-.1 1.3-.2 2.7-.3 4-.5 2.4-.4 4.8-1 7.2-1.8 1.8-.6 3.6-1.3 5.4-2.1 3.4-1.4 6.9-2 10.5-2.1 1.9 0 3.7 0 5.6.2 1.3.1 2.5.2 3.8.3 1.4.1 2.8.3 4.3.4 1.5.1 3 .2 4.5.2s2.9 0 4.4-.3c.7-.1 1.4-.3 2-.6.1-.1.2-.2.3-.2l-.1-.1z"/><path class="st0" d="M73.8 14.9c-.9.2-1.9.3-2.7.2-2.1-.1-4.2-.2-6.4-.3-1-.1-1.9-.1-2.9-.3-2-.3-3.9-.9-5.7-1.9-1.7-.8-3.2-1.9-4.7-2.9s-2.9-2-4.5-2.9c-1.8-.9-3.7-1.5-5.7-1.6-1.7-.1-3.3.1-5 .4-2.6.6-5.2 1.2-7.7 2.1-3.5 1.2-7.1 2.2-10.7 2.8-1.2.2-2.4.3-3.6.4-1.2.1-2.3 0-3.5 0-1.2 0-2.3-.2-3.4-.5-1-.2-2-.5-3-.8h-.2c0 .1 0 .2.1.2.2.2.4.3.7.4 1.7.8 3.6 1.2 5.5 1.4.9.1 1.8.2 2.7.2H17c1.4-.1 2.8-.2 4.2-.4 1.1-.1 2.3-.3 3.4-.5 1.2-.2 2.5-.4 3.7-.6 1.3-.2 2.7-.4 4-.6 1.1-.2 2.3-.3 3.5-.4 1-.1 2-.1 2.9-.2 1.6-.1 3.1 0 4.7.1 1.2.1 2.4.3 3.6.6 2.4.6 4.6 1.5 6.6 3 1.5 1.1 3 2.2 4.7 3 1.8.8 3.8 1.4 5.8 1.6 1.1.1 2.1.1 3.2-.1 1.6-.2 3.2-.6 4.6-1.3.9-.5 1.3-.7 1.9-1.1z"/></g></svg>